{
.appVersion = "113";
DisplayStrings = (
"tuna/space ça/gbreve lar/space gümü/scedilla e/space te/scedilla ekkür/space ederiz./space çok/space be/gbreve endik./space eline/space sa/gbreve l/idotless k\012\01220+5=65/space \0121234567890",
"ô",
"/ohungarumlaut"
);
copyright = "Copyright © 2021 by Tuna Çağlar Gümüş.";
customParameters = (
{
name = license;
value = "-";
}
);
date = "2021-04-11 18:32:49 +0000";
designer = "Tuna Çağlar Gümüş";
designerURL = "https://pikseladam.com/";
familyName = Saman;
featurePrefixes = (
{
automatic = 1;
code = "languagesystem DFLT dflt;\012languagesystem latn dflt;\012languagesystem latn ROM;\012languagesystem latn MOL;\012languagesystem latn KAZ;\012languagesystem latn TAT;\012languagesystem latn TRK;\012languagesystem latn CRT;\012languagesystem latn AZE;\012";
name = Languagesystems;
}
);
features = (
{
automatic = 1;
code = "feature locl;\012";
name = aalt;
},
{
automatic = 1;
code = "script latn;\012language ROM;\012sub Scedilla by Scommaaccent;\012sub scedilla by scommaaccent;\012sub Tcedilla by Tcommaaccent;\012sub tcedilla by tcommaaccent;\012language MOL;\012sub Scedilla by Scommaaccent;\012sub scedilla by scommaaccent;\012sub Tcedilla by Tcommaaccent;\012sub tcedilla by tcommaaccent;\012language KAZ;\012sub i by idotaccent;\012language TAT;\012sub i by idotaccent;\012language TRK;\012sub i by idotaccent;\012language CRT;\012sub i by idotaccent;\012language AZE;\012sub i by idotaccent;\012";
name = locl;
}
);
fontMaster = (
{
alignmentZones = (
"{800, 16}",
"{700, 16}",
"{500, 16}",
"{0, -15}",
"{-200, -16}"
);
ascender = 800;
capHeight = 700;
descender = -200;
id = "A833981A-68C5-4528-81CD-92C717829696";
weightValue = 0;
widthValue = 0;
xHeight = 500;
}
);
glyphs = (
{
glyphname = A;
lastChange = "2021-04-13 11:29:22 +0000";
layers = (
{
layerId = "A833981A-68C5-4528-81CD-92C717829696";
paths = (
{
closed = 1;
nodes = (
"42 0 LINE",
"172 0 LINE",
"317 700 LINE",
"187 700 LINE"
);
},
{
closed = 1;
nodes = (
"114 174 LINE",
"115 78 LINE",
"391 78 LINE",
"390 174 LINE"
);
},
{
closed = 1;
nodes = (
"187 700 LINE",
"332 0 LINE",
"462 0 LINE",
"317 700 LINE"
);
}
);
width = 504;
}
);
unicode = 0041;
},
{
glyphname = AE;
lastChange = "2021-04-13 11:21:57 +0000";
layers = (
{
layerId = "A833981A-68C5-4528-81CD-92C717829696";
paths = (
{
closed = 1;
nodes = (
"42 0 LINE",
"172 0 LINE",
"332 700 LINE",
"187 700 LINE"
);
},
{
closed = 1;
nodes = (
"114 279 LINE",
"114 149 LINE",
"390 149 LINE",
"390 279 LINE"
);
},
{
closed = 1;
nodes = (
"187 700 LINE",
"332 0 LINE",
"462 0 LINE",
"332 700 LINE"
);
},
{
closed = 1;
nodes = (
"332 0 LINE",
"462 0 LINE",
"462 700 LINE",
"332 700 LINE"
);
},
{
closed = 1;
nodes = (
"356 130 LINE",
"356 0 LINE",
"752 0 LINE",
"752 130 LINE"
);
},
{
closed = 1;
nodes = (
"357 700 LINE",
"357 570 LINE",
"752 570 LINE",
"752 700 LINE"
);
},
{
closed = 0;
nodes = (
"462 350 LINE"
);
},
{
closed = 1;
nodes = (
"357 415 LINE",
"357 285 LINE",
"752 285 LINE",
"752 415 LINE"
);
}
);
width = 794;
}
);
unicode = 00C6;
},
{
glyphname = B;
lastChange = "2021-04-13 11:21:57 +0000";
layers = (
{
layerId = "A833981A-68C5-4528-81CD-92C717829696";
paths = (
{
closed = 1;
nodes = (
"42 0 LINE",
"172 0 LINE",
"172 700 LINE",
"42 700 LINE"
);
},
{
closed = 1;
nodes = (
"297 280 LINE",
"297 410 LINE",
"111 410 LINE",
"111 280 LINE"
);
},
{
closed = 1;
nodes = (
"297 570 LINE",
"297 700 LINE",
"111 700 LINE",
"111 570 LINE"
);
},
{
closed = 1;
nodes = (
"297 280 LINE",
"518 280 OFFCURVE",
"517 700 OFFCURVE",
"297 700 CURVE",
"297 570 LINE",
"362 570 OFFCURVE",
"362 410 OFFCURVE",
"297 410 CURVE"
);
},
{
closed = 1;
nodes = (
"318 0 LINE",
"537 0 OFFCURVE",
"536 410 OFFCURVE",
"318 410 CURVE",
"297 280 LINE",
"362 280 OFFCURVE",
"362 129 OFFCURVE",
"297 129 CURVE"
);
},
{
closed = 1;
nodes = (
"318 0 LINE",
"297 129 LINE",
"143 130 LINE",
"143 0 LINE"
);
}
);
width = 524;
}
);
unicode = 0042;
},
{
glyphname = C;
lastChange = "2021-04-13 11:21:57 +0000";
layers = (
{
layerId = "A833981A-68C5-4528-81CD-92C717829696";
paths = (
{
closed = 1;
nodes = (
"448 0 OFFCURVE",
"533 87 OFFCURVE",
"571 201 CURVE",
"444 272 LINE",
"428 194 OFFCURVE",
"386 131 OFFCURVE",
"318 131 CURVE SMOOTH",
"139 131 OFFCURVE",
"139 570 OFFCURVE",
"318 569 CURVE SMOOTH",
"379 569 OFFCURVE",
"419 519 OFFCURVE",
"438 452 CURVE",
"562 522 LINE",
"521 624 OFFCURVE",
"439 700 OFFCURVE",
"318 700 CURVE SMOOTH",
"-50 700 OFFCURVE",
"-51 0 OFFCURVE",
"318 0 CURVE SMOOTH"
);
}
);
width = 613;
}
);
unicode = 0043;
},
{
glyphname = Ccedilla;
lastChange = "2021-04-13 11:21:57 +0000";
layers = (
{
layerId = "A833981A-68C5-4528-81CD-92C717829696";
paths = (
{
closed = 1;
nodes = (
"242 -32 OFFCURVE",
"206 -90 OFFCURVE",
"128 -90 CURVE",
"226 -158 LINE",
"338 -159 OFFCURVE",
"380 -33 OFFCURVE",
"380 11 CURVE",
"242 11 LINE"
);
},
{
closed = 1;
nodes = (
"448 0 OFFCURVE",
"533 87 OFFCURVE",
"571 201 CURVE",
"444 272 LINE",
"428 194 OFFCURVE",
"386 131 OFFCURVE",
"318 131 CURVE SMOOTH",
"139 131 OFFCURVE",
"139 570 OFFCURVE",
"318 569 CURVE SMOOTH",
"379 569 OFFCURVE",
"419 519 OFFCURVE",
"438 452 CURVE",
"562 522 LINE",
"521 624 OFFCURVE",
"439 700 OFFCURVE",
"318 700 CURVE SMOOTH",
"-50 700 OFFCURVE",
"-51 0 OFFCURVE",
"318 0 CURVE SMOOTH"
);
}
);
width = 613;
}
);
unicode = 00C7;
},
{
glyphname = D;
lastChange = "2021-04-13 11:21:57 +0000";
layers = (
{
layerId = "A833981A-68C5-4528-81CD-92C717829696";
paths = (
{
closed = 1;
nodes = (
"42 0 LINE",
"172 0 LINE",
"172 700 LINE",
"42 700 LINE"
);
},
{
closed = 1;
nodes = (
"66 131 LINE",
"66 0 LINE",
"268 0 LINE",
"268 131 LINE"
);
},
{
closed = 1;
nodes = (
"66 700 LINE",
"66 569 LINE",
"268 569 LINE",
"268 700 LINE"
);
},
{
closed = 0;
nodes = (
"268 0 LINE"
);
},
{
closed = 1;
nodes = (
"268 0 LINE",
"637 0 OFFCURVE",
"636 700 OFFCURVE",
"268 700 CURVE",
"268 569 LINE",
"447 570 OFFCURVE",
"447 131 OFFCURVE",
"268 131 CURVE"
);
}
);
width = 586;
}
);
unicode = 0044;
},
{
glyphname = Eth;
lastChange = "2021-04-13 11:21:57 +0000";
layers = (
{
layerId = "A833981A-68C5-4528-81CD-92C717829696";
paths = (
{
closed = 1;
nodes = (
"72 0 LINE",
"202 0 LINE",
"202 700 LINE",
"72 700 LINE"
);
},
{
closed = 1;
nodes = (
"96 131 LINE",
"96 0 LINE",
"298 0 LINE",
"298 131 LINE"
);
},
{
closed = 1;
nodes = (
"96 700 LINE",
"96 569 LINE",
"298 569 LINE",
"298 700 LINE"
);
},
{
closed = 0;
nodes = (
"298 0 LINE"
);
},
{
closed = 1;
nodes = (
"298 0 LINE",
"667 0 OFFCURVE",
"666 700 OFFCURVE",
"298 700 CURVE",
"298 569 LINE",
"477 570 OFFCURVE",
"477 131 OFFCURVE",
"298 131 CURVE"
);
},
{
closed = 1;
nodes = (
"42 265 LINE",
"305 265 LINE",
"305 415 LINE",
"42 415 LINE"
);
}
);
width = 616;
}
);
unicode = 00D0;
},
{
glyphname = E;
lastChange = "2021-04-13 11:21:57 +0000";
layers = (
{
layerId = "A833981A-68C5-4528-81CD-92C717829696";
paths = (
{
closed = 1;
nodes = (
"42 0 LINE",
"172 0 LINE",
"172 700 LINE",
"42 700 LINE"
);
},
{
closed = 1;
nodes = (
"66 130 LINE",
"66 0 LINE",
"462 0 LINE",
"462 130 LINE"
);
},
{
closed = 1;
nodes = (
"67 700 LINE",
"67 570 LINE",
"462 570 LINE",
"462 700 LINE"
);
},
{
closed = 0;
nodes = (
"172 350 LINE"
);
},
{
closed = 1;
nodes = (
"67 415 LINE",
"67 285 LINE",
"462 285 LINE",
"462 415 LINE"
);
}
);
width = 504;
}
);
unicode = 0045;
},
{
glyphname = F;
lastChange = "2021-04-13 11:21:57 +0000";
layers = (
{
layerId = "A833981A-68C5-4528-81CD-92C717829696";
paths = (
{
closed = 1;
nodes = (
"42 0 LINE",
"172 0 LINE",
"172 700 LINE",
"42 700 LINE"
);
},
{
closed = 1;
nodes = (
"67 700 LINE",
"67 570 LINE",
"462 570 LINE",
"462 700 LINE"
);
},
{
closed = 0;
nodes = (
"172 350 LINE"
);
},
{
closed = 1;
nodes = (
"67 415 LINE",
"67 285 LINE",
"462 285 LINE",
"462 415 LINE"
);
}
);
width = 504;
}
);
unicode = 0046;
},
{
glyphname = G;
lastChange = "2021-04-13 11:21:57 +0000";
layers = (
{
layerId = "A833981A-68C5-4528-81CD-92C717829696";
paths = (
{
closed = 1;
nodes = (
"571 409 LINE",
"441 409 LINE",
"444 272 LINE",
"571 201 LINE"
);
},
{
closed = 1;
nodes = (
"529 272 LINE",
"529 409 LINE",
"282 409 LINE",
"282 272 LINE"
);
},
{
closed = 1;
nodes = (
"448 0 OFFCURVE",
"533 88 OFFCURVE",
"571 201 CURVE",
"444 272 LINE",
"428 194 OFFCURVE",
"386 131 OFFCURVE",
"318 131 CURVE SMOOTH",
"139 131 OFFCURVE",
"139 570 OFFCURVE",
"318 569 CURVE SMOOTH",
"379 569 OFFCURVE",
"419 519 OFFCURVE",
"438 452 CURVE",
"562 522 LINE",
"521 624 OFFCURVE",
"439 700 OFFCURVE",
"318 700 CURVE SMOOTH",
"-50 700 OFFCURVE",
"-51 0 OFFCURVE",
"318 0 CURVE SMOOTH"
);
}
);
width = 613;
}
);
unicode = 0047;
},
{
glyphname = H;
lastChange = "2021-04-13 12:19:57 +0000";
layers = (
{
layerId = "A833981A-68C5-4528-81CD-92C717829696";
paths = (
{
closed = 1;
nodes = (
"42 0 LINE",
"172 0 LINE",
"172 700 LINE",
"42 700 LINE"
);
},
{
closed = 1;
nodes = (
"332 0 LINE",
"462 0 LINE",
"462 700 LINE",
"332 700 LINE"
);
},
{
closed = 1;
nodes = (
"44 370 LINE",
"459 370 LINE",
"459 500 LINE",
"44 500 LINE"
);
}
);
width = 552;
}
);
unicode = 0048;
},
{
glyphname = Hbar;
lastChange = "2021-04-13 12:19:35 +0000";
layers = (
{
components = (
{
name = H;
transform = "{1, 0, 0, 1, 28, 0}";
}
);
layerId = "A833981A-68C5-4528-81CD-92C717829696";
paths = (
{
closed = 1;
nodes = (
"42 553 LINE",
"530 553 LINE",
"530 623 LINE",
"42 623 LINE"
);
}
);
width = 572;
}
);
unicode = 0126;
},
{
glyphname = I;
lastChange = "2021-04-13 11:21:57 +0000";
layers = (
{
layerId = "A833981A-68C5-4528-81CD-92C717829696";
paths = (
{
closed = 1;
nodes = (
"42 0 LINE",
"172 0 LINE",
"172 700 LINE",
"42 700 LINE"
);
}
);
width = 214;
}
);
unicode = 0049;
},
{
glyphname = J;
lastChange = "2021-04-13 11:21:57 +0000";
layers = (
{
layerId = "A833981A-68C5-4528-81CD-92C717829696";
paths = (
{
closed = 1;
nodes = (
"217 0 OFFCURVE",
"392 37 OFFCURVE",
"392 221 CURVE",
"262 221 LINE",
"262 131 OFFCURVE",
"152 130 OFFCURVE",
"42 130 CURVE",
"42 0 LINE"
);
},
{
closed = 1;
nodes = (
"392 221 LINE",
"392 700 LINE",
"262 700 LINE",
"262 221 LINE"
);
}
);
width = 434;
}
);
unicode = 004A;
},
{
glyphname = K;
lastChange = "2021-04-13 11:21:57 +0000";
layers = (
{
layerId = "A833981A-68C5-4528-81CD-92C717829696";
paths = (
{
closed = 1;
nodes = (
"42 0 LINE",
"172 0 LINE",
"172 700 LINE",
"42 700 LINE"
);
},
{
closed = 1;
nodes = (
"462 700 LINE",
"332 700 LINE",
"172 430 LINE",
"172 220 LINE"
);
},
{
closed = 1;
nodes = (
"169 325 LINE",
"318 0 LINE",
"462 0 LINE",
"257 465 LINE"
);
}
);
width = 504;
}
);
unicode = 004B;
},
{
glyphname = L;
lastChange = "2021-04-13 11:21:57 +0000";
layers = (
{
layerId = "A833981A-68C5-4528-81CD-92C717829696";
paths = (
{
closed = 1;
nodes = (
"42 0 LINE",
"172 0 LINE",
"172 700 LINE",
"42 700 LINE"
);
},
{
closed = 1;
nodes = (
"66 130 LINE",
"66 0 LINE",
"462 0 LINE",
"462 130 LINE"
);
}
);
width = 504;
}
);
unicode = 004C;
},
{
glyphname = M;
lastChange = "2021-04-13 11:21:57 +0000";
layers = (
{
layerId = "A833981A-68C5-4528-81CD-92C717829696";
paths = (
{
closed = 1;
nodes = (
"42 0 LINE",
"172 0 LINE",
"172 700 LINE",
"42 700 LINE"
);
},
{
closed = 1;
nodes = (
"492 0 LINE",
"622 0 LINE",
"622 700 LINE",
"492 700 LINE"
);
},
{
closed = 1;
nodes = (
"172 400 LINE",
"332 0 LINE",
"332 300 LINE",
"172 700 LINE"
);
},
{
closed = 1;
nodes = (
"332 300 LINE",
"332 0 LINE",
"492 400 LINE",
"492 700 LINE"
);
}
);
width = 664;
}
);
unicode = 004D;
},
{
glyphname = N;
lastChange = "2021-04-13 11:21:57 +0000";
layers = (
{
layerId = "A833981A-68C5-4528-81CD-92C717829696";
paths = (
{
closed = 1;
nodes = (
"42 0 LINE",
"172 0 LINE",
"172 700 LINE",
"42 700 LINE"
);
},
{
closed = 1;
nodes = (
"332 0 LINE",
"462 0 LINE",
"462 700 LINE",
"332 700 LINE"
);
},
{
closed = 1;
nodes = (
"172 400 LINE",
"332 0 LINE",
"332 300 LINE",
"172 700 LINE"
);
}
);
width = 504;
}
);
unicode = 004E;
},
{
glyphname = O;
lastChange = "2021-04-13 11:21:57 +0000";
layers = (
{
layerId = "A833981A-68C5-4528-81CD-92C717829696";
paths = (
{
closed = 0;
nodes = (
"318 0 LINE"
);
},
{
closed = 1;
nodes = (
"318 0 LINE",
"687 0 OFFCURVE",
"686 700 OFFCURVE",
"318 700 CURVE",
"318 569 LINE",
"497 570 OFFCURVE",
"497 131 OFFCURVE",
"318 131 CURVE"
);
},
{
closed = 0;
nodes = (
"318 0 LINE"
);
},
{
closed = 1;
nodes = (
"139 131 OFFCURVE",
"139 570 OFFCURVE",
"318 569 CURVE",
"318 700 LINE",
"-50 700 OFFCURVE",
"-51 0 OFFCURVE",
"318 0 CURVE",
"318 131 LINE"
);
}
);
width = 636;
}
);
unicode = 004F;
},
{
glyphname = Odieresis;
lastChange = "2021-04-13 12:43:55 +0000";
layers = (
{
components = (
{
alignment = -1;
name = dieresiscomb;
transform = "{1, 0, 0, 1, 66, 200}";
}
);
layerId = "A833981A-68C5-4528-81CD-92C717829696";
paths = (
{
closed = 0;
nodes = (
"318 0 LINE"
);
},
{
closed = 1;
nodes = (
"318 0 LINE",
"687 0 OFFCURVE",
"686 700 OFFCURVE",
"318 700 CURVE",
"318 569 LINE",
"497 570 OFFCURVE",
"497 131 OFFCURVE",
"318 131 CURVE"
);
},
{
closed = 0;
nodes = (
"318 0 LINE"
);
},
{
closed = 1;
nodes = (
"139 131 OFFCURVE",
"139 570 OFFCURVE",
"318 569 CURVE",
"318 700 LINE",
"-50 700 OFFCURVE",
"-51 0 OFFCURVE",
"318 0 CURVE",
"318 131 LINE"
);
}
);
width = 636;
}
);
unicode = 00D6;
},
{
glyphname = OE;
lastChange = "2021-04-13 11:21:57 +0000";
layers = (
{
layerId = "A833981A-68C5-4528-81CD-92C717829696";
paths = (
{
closed = 0;
nodes = (
"318 0 LINE"
);
},
{
closed = 1;
nodes = (
"318 0 LINE",
"687 0 OFFCURVE",
"686 700 OFFCURVE",
"318 700 CURVE",
"318 569 LINE",
"497 570 OFFCURVE",
"497 131 OFFCURVE",
"318 131 CURVE"
);
},
{
closed = 0;
nodes = (
"318 0 LINE"
);
},
{
closed = 1;
nodes = (
"139 131 OFFCURVE",
"139 570 OFFCURVE",
"318 569 CURVE",
"318 700 LINE",
"-50 700 OFFCURVE",
"-51 0 OFFCURVE",
"318 0 CURVE",
"318 131 LINE"
);
},
{
closed = 1;
nodes = (
"497 0 LINE",
"627 0 LINE",
"627 700 LINE",
"497 700 LINE"
);
},
{
closed = 1;
nodes = (
"521 130 LINE",
"521 0 LINE",
"917 0 LINE",
"917 130 LINE"
);
},
{
closed = 1;
nodes = (
"522 700 LINE",
"522 570 LINE",
"917 570 LINE",
"917 700 LINE"
);
},
{
closed = 0;
nodes = (
"627 350 LINE"
);
},
{
closed = 1;
nodes = (
"522 415 LINE",
"522 285 LINE",
"917 285 LINE",
"917 415 LINE"
);
}
);
width = 959;
}
);
unicode = 0152;
},
{
glyphname = P;
lastChange = "2021-04-13 11:21:57 +0000";
layers = (
{
layerId = "A833981A-68C5-4528-81CD-92C717829696";
paths = (
{
closed = 1;
nodes = (
"42 0 LINE",
"172 0 LINE",
"172 700 LINE",
"42 700 LINE"
);
},
{
closed = 1;
nodes = (
"297 280 LINE",
"297 410 LINE",
"111 410 LINE",
"111 280 LINE"
);
},
{
closed = 1;
nodes = (
"297 570 LINE",
"297 700 LINE",
"111 700 LINE",
"111 570 LINE"
);
},
{
closed = 1;
nodes = (
"297 280 LINE",
"518 281 OFFCURVE",
"517 701 OFFCURVE",
"297 700 CURVE",
"297 570 LINE",
"362 570 OFFCURVE",
"362 410 OFFCURVE",
"297 410 CURVE"
);
}
);
width = 504;
}
);
unicode = 0050;
},
{
glyphname = Thorn;
lastChange = "2021-04-13 11:21:57 +0000";
layers = (
{
layerId = "A833981A-68C5-4528-81CD-92C717829696";
paths = (
{
closed = 1;
nodes = (
"42 0 LINE",
"172 0 LINE",
"172 700 LINE",
"42 700 LINE"
);
},
{
closed = 1;
nodes = (
"297 190 LINE",
"297 320 LINE",
"111 320 LINE",
"111 190 LINE"
);
},
{
closed = 1;
nodes = (
"297 480 LINE",
"297 610 LINE",
"111 610 LINE",
"111 480 LINE"
);
},
{
closed = 1;
nodes = (
"297 190 LINE",
"518 191 OFFCURVE",
"517 611 OFFCURVE",
"297 610 CURVE",
"297 480 LINE",
"362 480 OFFCURVE",
"362 320 OFFCURVE",
"297 320 CURVE"
);
}
);
width = 504;
}
);
unicode = 00DE;
},
{
glyphname = Q;
lastChange = "2021-04-13 11:21:57 +0000";
layers = (
{
layerId = "A833981A-68C5-4528-81CD-92C717829696";
paths = (
{
closed = 0;
nodes = (
"318 0 LINE"
);
},
{
closed = 1;
nodes = (
"318 0 LINE",
"687 0 OFFCURVE",
"686 700 OFFCURVE",
"318 700 CURVE",
"318 569 LINE",
"497 570 OFFCURVE",
"497 131 OFFCURVE",
"318 131 CURVE"
);
},
{
closed = 0;
nodes = (
"318 0 LINE"
);
},
{
closed = 1;
nodes = (
"139 131 OFFCURVE",
"139 570 OFFCURVE",
"318 569 CURVE",
"318 700 LINE",
"-50 700 OFFCURVE",
"-51 0 OFFCURVE",
"318 0 CURVE",
"318 131 LINE"
);
},
{
closed = 1;
nodes = (
"528 -75 LINE",
"640 44 LINE",
"530 162 LINE",
"420 44 LINE"
);
}
);
width = 682;
}
);
unicode = 0051;
},
{
glyphname = R;
lastChange = "2021-04-13 11:21:57 +0000";
layers = (
{
layerId = "A833981A-68C5-4528-81CD-92C717829696";
paths = (
{
closed = 1;
nodes = (
"42 0 LINE",
"172 0 LINE",
"172 700 LINE",
"42 700 LINE"
);
},
{
closed = 1;
nodes = (
"297 280 LINE",
"297 410 LINE",
"111 410 LINE",
"111 280 LINE"
);
},
{
closed = 1;
nodes = (
"297 570 LINE",
"297 700 LINE",
"111 700 LINE",
"111 570 LINE"
);
},
{
closed = 1;
nodes = (
"297 280 LINE",
"518 281 OFFCURVE",
"517 700 OFFCURVE",
"297 700 CURVE",
"297 570 LINE",
"362 570 OFFCURVE",
"362 410 OFFCURVE",
"297 410 CURVE"
);
},
{
closed = 1;
nodes = (
"340 0 LINE",
"480 0 LINE",
"371 322 LINE",
"231 322 LINE"
);
}
);
width = 522;
}
);
unicode = 0052;
},
{
glyphname = S;
lastChange = "2021-04-13 11:21:57 +0000";
layers = (
{
layerId = "A833981A-68C5-4528-81CD-92C717829696";
paths = (
{
closed = 1;
nodes = (
"390 412 OFFCURVE",
"491 322 OFFCURVE",
"491 207 CURVE SMOOTH",
"491 91 OFFCURVE",
"390 0 OFFCURVE",
"268 0 CURVE SMOOTH",
"143 0 OFFCURVE",
"42 91 OFFCURVE",
"42 207 CURVE",
"170 207 LINE",
"170 170 OFFCURVE",
"215 119 OFFCURVE",
"268 119 CURVE SMOOTH",
"320 119 OFFCURVE",
"362 170 OFFCURVE",
"362 207 CURVE SMOOTH",
"362 242 OFFCURVE",
"320 287 OFFCURVE",
"268 287 CURVE",
"268 412 LINE"
);
},
{
closed = 1;
nodes = (
"146 287 OFFCURVE",
"45 378 OFFCURVE",
"45 493 CURVE SMOOTH",
"45 610 OFFCURVE",
"146 700 OFFCURVE",
"268 700 CURVE SMOOTH",
"393 700 OFFCURVE",
"494 610 OFFCURVE",
"494 493 CURVE",
"366 493 LINE",
"366 528 OFFCURVE",
"321 580 OFFCURVE",
"268 580 CURVE SMOOTH",
"216 580 OFFCURVE",
"174 528 OFFCURVE",
"174 493 CURVE SMOOTH",
"174 455 OFFCURVE",
"216 412 OFFCURVE",
"268 412 CURVE",
"268 287 LINE"
);
}
);
width = 536;
}
);
unicode = 0053;
},
{
glyphname = Scedilla;
lastChange = "2021-04-13 11:21:57 +0000";
layers = (
{
components = (
{
name = cedillacomb;
transform = "{1, 0, 0, 1, -22, 0}";
}
);
layerId = "A833981A-68C5-4528-81CD-92C717829696";
paths = (
{
closed = 1;
nodes = (
"268 287 LINE",
"320 287 OFFCURVE",
"362 242 OFFCURVE",
"362 207 CURVE SMOOTH",
"362 170 OFFCURVE",
"320 119 OFFCURVE",
"268 119 CURVE SMOOTH",
"215 119 OFFCURVE",
"170 170 OFFCURVE",
"170 207 CURVE",
"42 207 LINE",
"42 91 OFFCURVE",
"143 0 OFFCURVE",
"268 0 CURVE SMOOTH",
"390 0 OFFCURVE",
"491 91 OFFCURVE",
"491 207 CURVE SMOOTH",
"491 322 OFFCURVE",
"390 412 OFFCURVE",
"268 412 CURVE"
);
},
{
closed = 1;
nodes = (
"146 287 OFFCURVE",
"45 378 OFFCURVE",
"45 493 CURVE SMOOTH",
"45 610 OFFCURVE",
"146 700 OFFCURVE",
"268 700 CURVE SMOOTH",
"393 700 OFFCURVE",
"494 610 OFFCURVE",
"494 493 CURVE",
"366 493 LINE",
"366 528 OFFCURVE",
"321 580 OFFCURVE",
"268 580 CURVE SMOOTH",
"216 580 OFFCURVE",
"174 528 OFFCURVE",
"174 493 CURVE SMOOTH",
"174 455 OFFCURVE",
"216 412 OFFCURVE",
"268 412 CURVE",
"268 287 LINE"
);
}
);
width = 536;
}
);
unicode = 015E;
},
{
glyphname = T;
lastChange = "2021-04-13 11:21:57 +0000";
layers = (
{
layerId = "A833981A-68C5-4528-81CD-92C717829696";
paths = (
{
closed = 1;
nodes = (
"187 0 LINE",
"317 0 LINE",
"317 700 LINE",
"187 700 LINE"
);
},
{
closed = 1;
nodes = (
"42 700 LINE",
"42 570 LINE",
"462 570 LINE",
"462 700 LINE"
);
}
);
width = 504;
}
);
unicode = 0054;
},
{
glyphname = Tcedilla;
lastChange = "2021-04-13 12:35:33 +0000";
layers = (
{
components = (
{
name = T;
}
);
layerId = "A833981A-68C5-4528-81CD-92C717829696";
paths = (
{
closed = 1;
nodes = (
"187 -43 OFFCURVE",
"153 -101 OFFCURVE",
"80 -101 CURVE",
"172 -169 LINE",
"277 -170 OFFCURVE",
"317 -44 OFFCURVE",
"317 0 CURVE",
"187 0 LINE"
);
}
);
width = 504;
}
);
unicode = 0162;
},
{
glyphname = U;
lastChange = "2021-04-13 11:21:57 +0000";
layers = (
{
layerId = "A833981A-68C5-4528-81CD-92C717829696";
paths = (
{
closed = 1;
nodes = (
"42 165 LINE",
"172 165 LINE",
"172 700 LINE",
"42 700 LINE"
);
},
{
closed = 1;
nodes = (
"332 165 LINE",
"462 165 LINE",
"462 700 LINE",
"332 700 LINE"
);
},
{
closed = 1;
nodes = (
"42 165 LINE",
"43 -56 OFFCURVE",
"463 -55 OFFCURVE",
"462 165 CURVE",
"332 165 LINE",
"332 100 OFFCURVE",
"172 100 OFFCURVE",
"172 165 CURVE"
);
}
);
width = 504;
}
);
unicode = 0055;
},
{
glyphname = Udieresis;
lastChange = "2021-04-13 12:44:08 +0000";
layers = (
{
components = (
{
alignment = -1;
name = dieresiscomb;
transform = "{1, 0, 0, 1, 0, 200}";
}
);
layerId = "A833981A-68C5-4528-81CD-92C717829696";
paths = (
{
closed = 1;
nodes = (
"42 165 LINE",
"172 165 LINE",
"172 700 LINE",
"42 700 LINE"
);
},
{
closed = 1;
nodes = (
"332 165 LINE",
"462 165 LINE",
"462 700 LINE",
"332 700 LINE"
);
},
{
closed = 1;
nodes = (
"42 165 LINE",
"43 -56 OFFCURVE",
"463 -55 OFFCURVE",
"462 165 CURVE",
"332 165 LINE",
"332 100 OFFCURVE",
"172 100 OFFCURVE",
"172 165 CURVE"
);
}
);
width = 504;
}
);
unicode = 00DC;
},
{
glyphname = V;
lastChange = "2021-04-13 11:21:57 +0000";
layers = (
{
layerId = "A833981A-68C5-4528-81CD-92C717829696";
paths = (
{
closed = 1;
nodes = (
"317 0 LINE",
"172 700 LINE",
"42 700 LINE",
"187 0 LINE"
);
},
{
closed = 1;
nodes = (
"462 700 LINE",
"332 700 LINE",
"187 0 LINE",
"317 0 LINE"
);
}
);
width = 504;
}
);
unicode = 0056;
},
{
glyphname = W;
lastChange = "2021-04-13 11:21:57 +0000";
layers = (
{
layerId = "A833981A-68C5-4528-81CD-92C717829696";
paths = (
{
closed = 1;
nodes = (
"317 0 LINE",
"172 700 LINE",
"42 700 LINE",
"187 0 LINE"
);
},
{
closed = 1;
nodes = (
"462 700 LINE",
"332 700 LINE",
"187 0 LINE",
"317 0 LINE"
);
},
{
closed = 1;
nodes = (
"607 0 LINE",
"462 700 LINE",
"332 700 LINE",
"477 0 LINE"
);
},
{
closed = 1;
nodes = (
"752 700 LINE",
"622 700 LINE",
"477 0 LINE",
"607 0 LINE"
);
}
);
width = 794;
}
);
unicode = 0057;
},
{
glyphname = X;
lastChange = "2021-04-13 11:21:57 +0000";
layers = (
{
layerId = "A833981A-68C5-4528-81CD-92C717829696";
paths = (
{
closed = 1;
nodes = (
"338 0 LINE",
"469 0 LINE",
"162 700 LINE",
"43 700 LINE"
);
},
{
closed = 1;
nodes = (
"42 0 LINE",
"172 0 LINE",
"469 630 LINE",
"338 630 LINE"
);
},
{
closed = 1;
nodes = (
"338 630 LINE",
"469 630 LINE",
"469 700 LINE",
"338 700 LINE"
);
}
);
width = 511;
}
);
unicode = 0058;
},
{
glyphname = Y;
lastChange = "2021-04-13 11:21:57 +0000";
layers = (
{
layerId = "A833981A-68C5-4528-81CD-92C717829696";
paths = (
{
closed = 1;
nodes = (
"317 286 LINE",
"172 700 LINE",
"42 700 LINE",
"187 286 LINE"
);
},
{
closed = 1;
nodes = (
"462 700 LINE",
"332 700 LINE",
"187 286 LINE",
"317 286 LINE"
);
},
{
closed = 1;
nodes = (
"187 0 LINE",
"317 0 LINE",
"317 286 LINE",
"187 286 LINE"
);
}
);
width = 504;
}
);
unicode = 0059;
},
{
glyphname = Z;
lastChange = "2021-04-13 11:21:57 +0000";
layers = (
{
layerId = "A833981A-68C5-4528-81CD-92C717829696";
paths = (
{
closed = 1;
nodes = (
"42 130 LINE",
"172 130 LINE",
"462 570 LINE",
"332 570 LINE"
);
},
{
closed = 1;
nodes = (
"42 130 LINE",
"42 0 LINE",
"462 0 LINE",
"462 130 LINE"
);
},
{
closed = 1;
nodes = (
"62 700 LINE",
"62 570 LINE",
"462 570 LINE",
"462 700 LINE"
);
},
{
closed = 0;
nodes = (
"172 350 LINE"
);
}
);
width = 504;
}
);
unicode = 005A;
},
{
glyphname = a;
lastChange = "2021-04-13 11:22:22 +0000";
layers = (
{
layerId = "A833981A-68C5-4528-81CD-92C717829696";
paths = (
{
closed = 1;
nodes = (
"302 252 OFFCURVE",
"319 232 OFFCURVE",
"319 174 CURVE",
"450 174 LINE",
"450 344 OFFCURVE",
"335 339 OFFCURVE",
"235 339 CURVE",
"239 252 LINE"
);
},
{
closed = 1;
nodes = (
"450 174 LINE"
);
},
{
closed = 1;
nodes = (
"235 0 LINE"
);
},
{
closed = 1;
nodes = (
"450 174 LINE"
);
},
{
closed = 1;
nodes = (
"235 0 LINE",
"336 10 OFFCURVE",
"450 73 OFFCURVE",
"450 174 CURVE",
"319 174 LINE",
"319 122 OFFCURVE",
"282 101 OFFCURVE",
"219 101 CURVE"
);
},
{
closed = 1;
nodes = (
"191 101 OFFCURVE",
"153 112 OFFCURVE",
"153 174 CURVE",
"42 174 LINE",
"42 4 OFFCURVE",
"135 0 OFFCURVE",
"235 0 CURVE",
"235 101 LINE"
);
},
{
closed = 1;
nodes = (
"257 339 LINE",
"157 339 OFFCURVE",
"42 344 OFFCURVE",
"42 174 CURVE",
"153 174 LINE",
"153 203 OFFCURVE",
"154 253 OFFCURVE",
"257 252 CURVE"
);
},
{
closed = 1;
nodes = (
"96 398 LINE",
"299 421 OFFCURVE",
"349 396 OFFCURVE",
"349 331 CURVE",
"450 174 LINE",
"450 471 OFFCURVE",
"411 550 OFFCURVE",
"96 500 CURVE"
);
},
{
closed = 1;
nodes = (
"351 0 LINE",
"449 0 LINE",
"450 174 LINE",
"350 100 LINE"
);
}
);
width = 492;
}
);
unicode = 0061;
},
{
glyphname = ae;
lastChange = "2021-04-13 11:22:22 +0000";
layers = (
{
layerId = "A833981A-68C5-4528-81CD-92C717829696";
paths = (
{
closed = 1;
nodes = (
"302 252 OFFCURVE",
"319 232 OFFCURVE",
"319 174 CURVE",
"450 174 LINE",
"450 344 OFFCURVE",
"335 339 OFFCURVE",
"235 339 CURVE",
"239 252 LINE"
);
},
{
closed = 1;
nodes = (
"450 174 LINE"
);
},
{
closed = 1;
nodes = (
"235 0 LINE"
);
},
{
closed = 1;
nodes = (
"450 174 LINE"
);
},
{
closed = 1;
nodes = (
"235 0 LINE",
"336 10 OFFCURVE",
"450 73 OFFCURVE",
"450 174 CURVE",
"319 174 LINE",
"319 122 OFFCURVE",
"282 101 OFFCURVE",
"219 101 CURVE"
);
},
{
closed = 1;
nodes = (
"191 101 OFFCURVE",
"153 112 OFFCURVE",
"153 174 CURVE",
"42 174 LINE",
"42 4 OFFCURVE",
"135 0 OFFCURVE",
"235 0 CURVE",
"235 101 LINE"
);
},
{
closed = 1;
nodes = (
"257 339 LINE",
"157 339 OFFCURVE",
"42 344 OFFCURVE",
"42 174 CURVE",
"153 174 LINE",
"153 203 OFFCURVE",
"154 253 OFFCURVE",
"257 252 CURVE"
);
},
{
closed = 1;
nodes = (
"96 398 LINE",
"299 421 OFFCURVE",
"349 396 OFFCURVE",
"349 331 CURVE",
"450 174 LINE",
"450 471 OFFCURVE",
"411 550 OFFCURVE",
"96 500 CURVE"
);
},
{
closed = 1;
nodes = (
"351 0 LINE",
"449 0 LINE",
"450 174 LINE",
"350 100 LINE"
);
},
{
closed = 1;
nodes = (
"491 210 LINE",
"491 290 LINE",
"362 290 LINE",
"362 210 LINE"
);
},
{
closed = 0;
nodes = (
"491 28 LINE"
);
},
{
closed = 0;
nodes = (
"491 28 LINE"
);
},
{
closed = 0;
nodes = (
"491 28 LINE"
);
},
{
closed = 1;
nodes = (
"566 0 LINE",
"688 0 OFFCURVE",
"728 24 OFFCURVE",
"757 85 CURVE",
"674 157 LINE",
"648 119 OFFCURVE",
"589 128 OFFCURVE",
"556 128 CURVE"
);
},
{
closed = 1;
nodes = (
"508 128 OFFCURVE",
"491 157 OFFCURVE",
"491 210 CURVE",
"362 210 LINE",
"362 85 OFFCURVE",
"456 0 OFFCURVE",
"566 0 CURVE",
"556 128 LINE"
);
},
{
closed = 1;
nodes = (
"619 372 OFFCURVE",
"650 354 OFFCURVE",
"650 300 CURVE",
"781 300 LINE",
"781 434 OFFCURVE",
"666 500 OFFCURVE",
"566 500 CURVE",
"556 372 LINE"
);
},
{
closed = 1;
nodes = (
"566 500 LINE",
"456 500 OFFCURVE",
"362 415 OFFCURVE",
"362 290 CURVE",
"491 290 LINE",
"491 343 OFFCURVE",
"508 372 OFFCURVE",
"556 372 CURVE"
);
},
{
closed = 1;
nodes = (
"477 219 LINE",
"781 220 LINE",
"781 300 LINE",
"477 300 LINE"
);
}
);
width = 823;
}
);
unicode = 00E6;
},
{
glyphname = b;
lastChange = "2021-04-13 19:09:05 +0000";
layers = (
{
layerId = "A833981A-68C5-4528-81CD-92C717829696";
paths = (
{
closed = 1;
nodes = (
"161 0 LINE",
"172 28 LINE",
"172 700 LINE",
"42 700 LINE",
"42 0 LINE"
);
},
{
closed = 1;
nodes = (
"462 210 LINE",
"462 254 LINE",
"331 254 LINE",
"331 210 LINE"
);
},
{
closed = 1;
nodes = (
"247 0 LINE",
"347 0 OFFCURVE",
"462 40 OFFCURVE",
"462 210 CURVE",
"331 210 LINE",
"331 136 OFFCURVE",
"300 128 OFFCURVE",
"237 128 CURVE"
);
},
{
closed = 1;
nodes = (
"189 128 OFFCURVE",
"172 157 OFFCURVE",
"172 210 CURVE",
"97 210 LINE",
"97 85 OFFCURVE",
"137 0 OFFCURVE",
"247 0 CURVE",
"237 128 LINE"
);
},
{
closed = 1;
nodes = (
"462 210 LINE",
"462 254 LINE",
"331 254 LINE",
"331 210 LINE"
);
},
{
closed = 1;
nodes = (
"247 0 LINE",
"347 0 OFFCURVE",
"462 40 OFFCURVE",
"462 210 CURVE",
"331 210 LINE",
"331 136 OFFCURVE",
"300 128 OFFCURVE",
"237 128 CURVE"
);
},
{
closed = 1;
nodes = (
"189 128 OFFCURVE",
"172 157 OFFCURVE",
"172 210 CURVE",
"97 210 LINE",
"97 85 OFFCURVE",
"137 0 OFFCURVE",
"247 0 CURVE",
"237 128 LINE"
);
},
{
closed = 1;
nodes = (
"462 210 LINE",
"462 254 LINE",
"331 254 LINE",
"331 210 LINE"
);
},
{
closed = 1;
nodes = (
"247 0 LINE",
"347 0 OFFCURVE",
"462 40 OFFCURVE",
"462 210 CURVE",
"331 210 LINE",
"331 136 OFFCURVE",
"300 128 OFFCURVE",
"237 128 CURVE"
);
},
{
closed = 1;
nodes = (
"189 128 OFFCURVE",
"172 157 OFFCURVE",
"172 210 CURVE",
"97 210 LINE",
"97 85 OFFCURVE",
"137 0 OFFCURVE",
"247 0 CURVE",
"237 128 LINE"
);
},
{
closed = 1;
nodes = (
"462 210 LINE",
"462 254 LINE",
"331 254 LINE",
"331 210 LINE"
);
},
{
closed = 1;
nodes = (
"247 0 LINE",
"347 0 OFFCURVE",
"462 40 OFFCURVE",
"462 210 CURVE",
"331 210 LINE",
"331 136 OFFCURVE",
"300 128 OFFCURVE",
"237 128 CURVE"
);
},
{
closed = 1;
nodes = (
"189 128 OFFCURVE",
"172 157 OFFCURVE",
"172 210 CURVE",
"97 210 LINE",
"97 85 OFFCURVE",
"137 0 OFFCURVE",
"247 0 CURVE",
"237 128 LINE"
);
},
{
closed = 1;
nodes = (
"331 254 LINE",
"462 254 LINE",
"462 290 LINE",
"331 290 LINE"
);
},
{
closed = 1;
nodes = (
"300 372 OFFCURVE",
"331 364 OFFCURVE",
"331 290 CURVE",
"462 290 LINE",
"462 460 OFFCURVE",
"347 500 OFFCURVE",
"247 500 CURVE",
"237 372 LINE"
);
},
{
closed = 1;
nodes = (
"247 500 LINE",
"137 500 OFFCURVE",
"97 415 OFFCURVE",
"97 290 CURVE",
"172 290 LINE",
"172 343 OFFCURVE",
"189 372 OFFCURVE",
"237 372 CURVE"
);
},
{
closed = 1;
nodes = (
"331 254 LINE",
"462 254 LINE",
"462 290 LINE",
"331 290 LINE"
);
},
{
closed = 1;
nodes = (
"300 372 OFFCURVE",
"331 364 OFFCURVE",
"331 290 CURVE",
"462 290 LINE",
"462 460 OFFCURVE",
"347 500 OFFCURVE",
"247 500 CURVE",
"237 372 LINE"
);
},
{
closed = 1;
nodes = (
"247 500 LINE",
"137 500 OFFCURVE",
"97 415 OFFCURVE",
"97 290 CURVE",
"172 290 LINE",
"172 343 OFFCURVE",
"189 372 OFFCURVE",
"237 372 CURVE"
);
},
{
closed = 1;
nodes = (
"331 254 LINE",
"462 254 LINE",
"462 290 LINE",
"331 290 LINE"
);
},
{
closed = 1;
nodes = (
"300 372 OFFCURVE",
"331 364 OFFCURVE",
"331 290 CURVE",
"462 290 LINE",
"462 460 OFFCURVE",
"347 500 OFFCURVE",
"247 500 CURVE",
"237 372 LINE"
);
},
{
closed = 1;
nodes = (
"247 500 LINE",
"137 500 OFFCURVE",
"97 415 OFFCURVE",
"97 290 CURVE",
"172 290 LINE",
"172 343 OFFCURVE",
"189 372 OFFCURVE",
"237 372 CURVE"
);
},
{
closed = 1;
nodes = (
"331 254 LINE",
"462 254 LINE",
"462 290 LINE",
"331 290 LINE"
);
},
{
closed = 1;
nodes = (
"300 372 OFFCURVE",
"331 364 OFFCURVE",
"331 290 CURVE",
"462 290 LINE",
"462 460 OFFCURVE",
"347 500 OFFCURVE",
"247 500 CURVE",
"237 372 LINE"
);
},
{
closed = 1;
nodes = (
"247 500 LINE",
"137 500 OFFCURVE",
"97 415 OFFCURVE",
"97 290 CURVE",
"172 290 LINE",
"172 343 OFFCURVE",
"189 372 OFFCURVE",
"237 372 CURVE"
);
}
);
width = 504;
}
);
unicode = 0062;
},
{
glyphname = c;
lastChange = "2021-04-13 11:22:22 +0000";
layers = (
{
layerId = "A833981A-68C5-4528-81CD-92C717829696";
paths = (
{
closed = 1;
nodes = (
"171 210 LINE",
"171 290 LINE",
"42 290 LINE",
"42 210 LINE"
);
},
{
closed = 0;
nodes = (
"171 28 LINE"
);
},
{
closed = 0;
nodes = (
"171 28 LINE"
);
},
{
closed = 0;
nodes = (
"171 28 LINE"
);
},
{
closed = 1;
nodes = (
"246 0 LINE",
"346 0 OFFCURVE",
"461 33 OFFCURVE",
"461 177 CURVE",
"330 177 LINE",
"330 128 OFFCURVE",
"299 128 OFFCURVE",
"236 128 CURVE"
);
},
{
closed = 1;
nodes = (
"188 128 OFFCURVE",
"171 157 OFFCURVE",
"171 210 CURVE",
"42 210 LINE",
"42 85 OFFCURVE",
"136 0 OFFCURVE",
"246 0 CURVE",
"236 128 LINE"
);
},
{
closed = 1;
nodes = (
"299 372 OFFCURVE",
"330 377 OFFCURVE",
"330 323 CURVE",
"461 323 LINE",
"461 457 OFFCURVE",
"346 500 OFFCURVE",
"246 500 CURVE",
"236 372 LINE"
);
},
{
closed = 1;
nodes = (
"246 500 LINE",
"136 500 OFFCURVE",
"42 415 OFFCURVE",
"42 290 CURVE",
"171 290 LINE",
"171 343 OFFCURVE",
"188 372 OFFCURVE",
"236 372 CURVE"
);
}
);
width = 503;
}
);
unicode = 0063;
},
{
glyphname = ccedilla;
lastChange = "2021-04-13 11:22:22 +0000";
layers = (
{
components = (
{
name = cedillacomb;
transform = "{1, 0, 0, 1, -38, 0}";
}
);
layerId = "A833981A-68C5-4528-81CD-92C717829696";
paths = (
{
closed = 1;
nodes = (
"171 210 LINE",
"171 290 LINE",
"42 290 LINE",
"42 210 LINE"
);
},
{
closed = 0;
nodes = (
"171 28 LINE"
);
},
{
closed = 0;
nodes = (
"171 28 LINE"
);
},
{
closed = 0;
nodes = (
"171 28 LINE"
);
},
{
closed = 1;
nodes = (
"246 0 LINE",
"346 0 OFFCURVE",
"461 33 OFFCURVE",
"461 177 CURVE",
"330 177 LINE",
"330 128 OFFCURVE",
"299 128 OFFCURVE",
"236 128 CURVE"
);
},
{
closed = 1;
nodes = (
"188 128 OFFCURVE",
"171 157 OFFCURVE",
"171 210 CURVE",
"42 210 LINE",
"42 85 OFFCURVE",
"136 0 OFFCURVE",
"246 0 CURVE",
"236 128 LINE"
);
},
{
closed = 1;
nodes = (
"299 372 OFFCURVE",
"330 377 OFFCURVE",
"330 323 CURVE",
"461 323 LINE",
"461 457 OFFCURVE",
"346 500 OFFCURVE",
"246 500 CURVE",
"236 372 LINE"
);
},
{
closed = 1;
nodes = (
"246 500 LINE",
"136 500 OFFCURVE",
"42 415 OFFCURVE",
"42 290 CURVE",
"171 290 LINE",
"171 343 OFFCURVE",
"188 372 OFFCURVE",
"236 372 CURVE"
);
}
);
width = 503;
}
);
unicode = 00E7;
},
{
glyphname = d;
lastChange = "2021-04-13 19:09:55 +0000";
layers = (
{
layerId = "A833981A-68C5-4528-81CD-92C717829696";
paths = (
{
closed = 1;
nodes = (
"462 700 LINE",
"332 700 LINE",
"332 28 LINE",
"343 0 LINE",
"462 0 LINE"
);
},
{
closed = 1;
nodes = (
"173 254 LINE",
"42 254 LINE",
"42 210 LINE",
"173 210 LINE"
);
},
{
closed = 1;
nodes = (
"204 128 OFFCURVE",
"173 136 OFFCURVE",
"173 210 CURVE",
"42 210 LINE",
"42 40 OFFCURVE",
"157 0 OFFCURVE",
"257 0 CURVE",
"267 128 LINE"
);
},
{
closed = 1;
nodes = (
"257 0 LINE",
"367 0 OFFCURVE",
"407 85 OFFCURVE",
"407 210 CURVE",
"332 210 LINE",
"332 157 OFFCURVE",
"315 128 OFFCURVE",
"267 128 CURVE"
);
},
{
closed = 0;
nodes = (
"332 28 LINE"
);
},
{
closed = 1;
nodes = (
"173 254 LINE",
"42 254 LINE",
"42 210 LINE",
"173 210 LINE"
);
},
{
closed = 1;
nodes = (
"204 128 OFFCURVE",
"173 136 OFFCURVE",
"173 210 CURVE",
"42 210 LINE",
"42 40 OFFCURVE",
"157 0 OFFCURVE",
"257 0 CURVE",
"267 128 LINE"
);
},
{
closed = 1;
nodes = (
"257 0 LINE",
"367 0 OFFCURVE",
"407 85 OFFCURVE",
"407 210 CURVE",
"332 210 LINE",
"332 157 OFFCURVE",
"315 128 OFFCURVE",
"267 128 CURVE"
);
},
{
closed = 0;
nodes = (
"332 28 LINE"
);
},
{
closed = 1;
nodes = (
"173 254 LINE",
"42 254 LINE",
"42 210 LINE",
"173 210 LINE"
);
},
{
closed = 1;
nodes = (
"204 128 OFFCURVE",
"173 136 OFFCURVE",
"173 210 CURVE",
"42 210 LINE",
"42 40 OFFCURVE",
"157 0 OFFCURVE",
"257 0 CURVE",
"267 128 LINE"
);
},
{
closed = 1;
nodes = (
"257 0 LINE",
"367 0 OFFCURVE",
"407 85 OFFCURVE",
"407 210 CURVE",
"332 210 LINE",
"332 157 OFFCURVE",
"315 128 OFFCURVE",
"267 128 CURVE"
);
},
{
closed = 1;
nodes = (
"173 254 LINE",
"42 254 LINE",
"42 210 LINE",
"173 210 LINE"
);
},
{
closed = 1;
nodes = (
"204 128 OFFCURVE",
"173 136 OFFCURVE",
"173 210 CURVE",
"42 210 LINE",
"42 40 OFFCURVE",
"157 0 OFFCURVE",
"257 0 CURVE",
"267 128 LINE"
);
},
{
closed = 1;
nodes = (
"257 0 LINE",
"367 0 OFFCURVE",
"407 85 OFFCURVE",
"407 210 CURVE",
"332 210 LINE",
"332 157 OFFCURVE",
"315 128 OFFCURVE",
"267 128 CURVE"
);
},
{
closed = 1;
nodes = (
"42 290 LINE",
"42 254 LINE",
"173 254 LINE",
"173 290 LINE"
);
},
{
closed = 1;
nodes = (
"42 290 LINE",
"42 254 LINE",
"173 254 LINE",
"173 290 LINE"
);
},
{
closed = 1;
nodes = (
"42 290 LINE",
"42 254 LINE",
"173 254 LINE",
"173 290 LINE"
);
},
{
closed = 1;
nodes = (
"42 290 LINE",
"42 254 LINE",
"173 254 LINE",
"173 290 LINE"
);
},
{
closed = 1;
nodes = (
"257 500 LINE",
"157 500 OFFCURVE",
"42 460 OFFCURVE",
"42 290 CURVE",
"173 290 LINE",
"173 364 OFFCURVE",
"204 372 OFFCURVE",
"267 372 CURVE"
);
},
{
closed = 1;
nodes = (
"315 372 OFFCURVE",
"332 343 OFFCURVE",
"332 290 CURVE",
"407 290 LINE",
"407 415 OFFCURVE",
"367 500 OFFCURVE",
"257 500 CURVE",
"267 372 LINE"
);
}
);
width = 504;
}
);
unicode = 0064;
},
{
glyphname = eth;
lastChange = "2021-04-13 11:22:22 +0000";
layers = (
{
layerId = "A833981A-68C5-4528-81CD-92C717829696";
paths = (
{
closed = 1;
nodes = (
"462 233 OFFCURVE",
"548 700 OFFCURVE",
"173 700 CURVE",
"121 605 LINE",
"293 600 OFFCURVE",
"332 462 OFFCURVE",
"332 290 CURVE SMOOTH",
"332 265 OFFCURVE",
"332 236 OFFCURVE",
"332 210 CURVE SMOOTH",
"332 136 OFFCURVE",
"326 60 OFFCURVE",
"327 0 CURVE",
"462 0 LINE"
);
},
{
closed = 1;
nodes = (
"173 254 LINE",
"42 254 LINE",
"42 210 LINE",
"173 210 LINE"
);
},
{
closed = 1;
nodes = (
"204 128 OFFCURVE",
"173 136 OFFCURVE",
"173 210 CURVE",
"42 210 LINE",
"42 40 OFFCURVE",
"157 0 OFFCURVE",
"257 0 CURVE",
"267 128 LINE"
);
},
{
closed = 1;
nodes = (
"257 0 LINE",
"367 0 OFFCURVE",
"407 85 OFFCURVE",
"407 210 CURVE",
"332 210 LINE",
"332 157 OFFCURVE",
"315 128 OFFCURVE",
"267 128 CURVE"
);
},
{
closed = 0;
nodes = (
"332 28 LINE"
);
},
{
closed = 1;
nodes = (
"173 254 LINE",
"42 254 LINE",
"42 210 LINE",
"173 210 LINE"
);
},
{
closed = 1;
nodes = (
"204 128 OFFCURVE",
"173 136 OFFCURVE",
"173 210 CURVE",
"42 210 LINE",
"42 40 OFFCURVE",
"157 0 OFFCURVE",
"257 0 CURVE",
"267 128 LINE"
);
},
{
closed = 1;
nodes = (
"257 0 LINE",
"367 0 OFFCURVE",
"407 85 OFFCURVE",
"407 210 CURVE",
"332 210 LINE",
"332 157 OFFCURVE",
"315 128 OFFCURVE",
"267 128 CURVE"
);
},
{
closed = 0;
nodes = (
"332 28 LINE"
);
},
{
closed = 1;
nodes = (
"173 254 LINE",
"42 254 LINE",
"42 210 LINE",
"173 210 LINE"
);
},
{
closed = 1;
nodes = (
"204 128 OFFCURVE",
"173 136 OFFCURVE",
"173 210 CURVE",
"42 210 LINE",
"42 40 OFFCURVE",
"157 0 OFFCURVE",
"257 0 CURVE",
"267 128 LINE"
);
},
{
closed = 1;
nodes = (
"257 0 LINE",
"367 0 OFFCURVE",
"407 85 OFFCURVE",
"407 210 CURVE",
"332 210 LINE",
"332 157 OFFCURVE",
"315 128 OFFCURVE",
"267 128 CURVE"
);
},
{
closed = 0;
nodes = (
"332 28 LINE"
);
},
{
closed = 1;
nodes = (
"173 254 LINE",
"42 254 LINE",
"42 210 LINE",
"173 210 LINE"
);
},
{
closed = 1;
nodes = (
"204 128 OFFCURVE",
"173 136 OFFCURVE",
"173 210 CURVE",
"42 210 LINE",
"42 40 OFFCURVE",
"157 0 OFFCURVE",
"257 0 CURVE",
"267 128 LINE"
);
},
{
closed = 1;
nodes = (
"257 0 LINE",
"367 0 OFFCURVE",
"407 85 OFFCURVE",
"407 210 CURVE",
"332 210 LINE",
"332 157 OFFCURVE",
"315 128 OFFCURVE",
"267 128 CURVE"
);
},
{
closed = 1;
nodes = (
"42 290 LINE",
"42 254 LINE",
"173 254 LINE",
"173 290 LINE"
);
},
{
closed = 1;
nodes = (
"257 500 LINE",
"157 500 OFFCURVE",
"42 460 OFFCURVE",
"42 290 CURVE",
"173 290 LINE",
"173 364 OFFCURVE",
"204 372 OFFCURVE",
"267 372 CURVE"
);
},
{
closed = 1;
nodes = (
"315 372 OFFCURVE",
"332 343 OFFCURVE",
"332 290 CURVE",
"407 290 LINE",
"407 415 OFFCURVE",
"367 500 OFFCURVE",
"257 500 CURVE",
"267 372 LINE"
);
},
{
closed = 1;
nodes = (
"42 290 LINE",
"42 254 LINE",
"173 254 LINE",
"173 290 LINE"
);
},
{
closed = 1;
nodes = (
"257 500 LINE",
"157 500 OFFCURVE",
"42 460 OFFCURVE",
"42 290 CURVE",
"173 290 LINE",
"173 364 OFFCURVE",
"204 372 OFFCURVE",
"267 372 CURVE"
);
},
{
closed = 1;
nodes = (
"315 372 OFFCURVE",
"332 343 OFFCURVE",
"332 290 CURVE",
"407 290 LINE",
"407 415 OFFCURVE",
"367 500 OFFCURVE",
"257 500 CURVE",
"267 372 LINE"
);
},
{
closed = 1;
nodes = (
"42 290 LINE",
"42 254 LINE",
"173 254 LINE",
"173 290 LINE"
);
},
{
closed = 1;
nodes = (
"257 500 LINE",
"157 500 OFFCURVE",
"42 460 OFFCURVE",
"42 290 CURVE",
"173 290 LINE",
"173 364 OFFCURVE",
"204 372 OFFCURVE",
"267 372 CURVE"
);
},
{
closed = 1;
nodes = (
"315 372 OFFCURVE",
"332 343 OFFCURVE",
"332 290 CURVE",
"407 290 LINE",
"407 415 OFFCURVE",
"367 500 OFFCURVE",
"257 500 CURVE",
"267 372 LINE"
);
},
{
closed = 1;
nodes = (
"42 290 LINE",
"42 254 LINE",
"173 254 LINE",
"173 290 LINE"
);
},
{
closed = 1;
nodes = (
"257 500 LINE",
"157 500 OFFCURVE",
"42 460 OFFCURVE",
"42 290 CURVE",
"173 290 LINE",
"173 364 OFFCURVE",
"204 372 OFFCURVE",
"267 372 CURVE"
);
},
{
closed = 1;
nodes = (
"315 372 OFFCURVE",
"332 343 OFFCURVE",
"332 290 CURVE",
"407 290 LINE",
"407 415 OFFCURVE",
"367 500 OFFCURVE",
"257 500 CURVE",
"267 372 LINE"
);
},
{
closed = 1;
nodes = (
"239 518 LINE",
"420 679 LINE",
"308 716 LINE",
"127 554 LINE"
);
}
);
width = 513;
}
);
unicode = 00F0;
},
{
glyphname = e;
lastChange = "2021-04-13 11:22:22 +0000";
layers = (
{
layerId = "A833981A-68C5-4528-81CD-92C717829696";
paths = (
{
closed = 1;
nodes = (
"171 210 LINE",
"171 290 LINE",
"42 290 LINE",
"42 210 LINE"
);
},
{
closed = 0;
nodes = (
"171 28 LINE"
);
},
{
closed = 0;
nodes = (
"171 28 LINE"
);
},
{
closed = 0;
nodes = (
"171 28 LINE"
);
},
{
closed = 1;
nodes = (
"246 0 LINE",
"368 0 OFFCURVE",
"408 24 OFFCURVE",
"437 85 CURVE",
"354 157 LINE",
"328 119 OFFCURVE",
"269 128 OFFCURVE",
"236 128 CURVE"
);
},
{
closed = 1;
nodes = (
"188 128 OFFCURVE",
"171 157 OFFCURVE",
"171 210 CURVE",
"42 210 LINE",
"42 85 OFFCURVE",
"136 0 OFFCURVE",
"246 0 CURVE",
"236 128 LINE"
);
},
{
closed = 1;
nodes = (
"299 372 OFFCURVE",
"330 354 OFFCURVE",
"330 300 CURVE",
"461 300 LINE",
"461 434 OFFCURVE",
"346 500 OFFCURVE",
"246 500 CURVE",
"236 372 LINE"
);
},
{
closed = 1;
nodes = (
"246 500 LINE",
"136 500 OFFCURVE",
"42 415 OFFCURVE",
"42 290 CURVE",
"171 290 LINE",
"171 343 OFFCURVE",
"188 372 OFFCURVE",
"236 372 CURVE"
);
},
{
closed = 1;
nodes = (
"157 219 LINE",
"461 220 LINE",
"461 300 LINE",
"157 300 LINE"
);
}
);
width = 503;
}
);
unicode = 0065;
},
{
glyphname = f;
lastChange = "2021-04-13 19:00:57 +0000";
layers = (
{
layerId = "A833981A-68C5-4528-81CD-92C717829696";
paths = (
{
closed = 1;
nodes = (
"239 0 LINE",
"239 676 LINE",
"109 485 LINE",
"109 15 LINE"
);
},
{
closed = 1;
nodes = (
"303 500 LINE",
"42 501 LINE",
"42 372 LINE",
"303 371 LINE"
);
},
{
closed = 1;
nodes = (
"239 538 OFFCURVE",
"276 569 OFFCURVE",
"350 569 CURVE",
"350 700 LINE",
"180 700 OFFCURVE",
"109 585 OFFCURVE",
"109 485 CURVE",
"239 475 LINE"
);
}
);
width = 392;
}
);
unicode = 0066;
},
{
glyphname = g;
lastChange = "2021-04-13 19:01:22 +0000";
layers = (
{
layerId = "A833981A-68C5-4528-81CD-92C717829696";
paths = (
{
closed = 1;
nodes = (
"332 482 LINE",
"332 -38 LINE",
"462 -38 LINE",
"462 404 LINE"
);
},
{
closed = 1;
nodes = (
"315 372 OFFCURVE",
"332 343 OFFCURVE",
"332 290 CURVE",
"407 290 LINE",
"407 415 OFFCURVE",
"367 500 OFFCURVE",
"257 500 CURVE",
"267 372 LINE"
);
},
{
closed = 1;
nodes = (
"42 290 LINE",
"42 246 LINE",
"173 246 LINE",
"173 290 LINE"
);
},
{
closed = 1;
nodes = (
"257 500 LINE",
"157 500 OFFCURVE",
"42 460 OFFCURVE",
"42 290 CURVE",
"173 290 LINE",
"173 364 OFFCURVE",
"204 372 OFFCURVE",
"267 372 CURVE"
);
},
{
closed = 0;
nodes = (
"332 28 LINE"
);
},
{
closed = 1;
nodes = (
"173 246 LINE",
"42 246 LINE"
);
},
{
closed = 1;
nodes = (
"173 246 LINE",
"42 246 LINE"
);
},
{
closed = 0;
nodes = (
"332 28 LINE"
);
},
{
closed = 1;
nodes = (
"173 246 LINE",
"42 246 LINE"
);
},
{
closed = 1;
nodes = (
"204 128 OFFCURVE",
"173 136 OFFCURVE",
"173 210 CURVE",
"42 210 LINE",
"42 40 OFFCURVE",
"157 0 OFFCURVE",
"257 0 CURVE",
"267 128 LINE"
);
},
{
closed = 1;
nodes = (
"257 0 LINE",
"367 0 OFFCURVE",
"407 85 OFFCURVE",
"407 210 CURVE",
"332 210 LINE",
"332 157 OFFCURVE",
"315 128 OFFCURVE",
"267 128 CURVE"
);
},
{
closed = 1;
nodes = (
"173 246 LINE",
"42 246 LINE",
"42 210 LINE",
"173 210 LINE"
);
},
{
closed = 0;
nodes = (
"257 0 LINE"
);
},
{
closed = 1;
nodes = (
"223 -100 OFFCURVE",
"175 -75 OFFCURVE",
"175 -22 CURVE",
"65 -22 LINE",
"65 -167 OFFCURVE",
"201 -200 OFFCURVE",
"252 -200 CURVE",
"252 -100 LINE"
);
},
{
closed = 1;
nodes = (
"252 -200 LINE",
"429 -200 OFFCURVE",
"462 -102 OFFCURVE",
"462 -38 CURVE",
"332 -38 LINE",
"332 -38 OFFCURVE",
"334 -100 OFFCURVE",
"252 -100 CURVE"
);
},
{
closed = 1;
nodes = (
"267 500 LINE",
"462 404 LINE",
"462 432 OFFCURVE",
"427 500 OFFCURVE",
"313 500 CURVE"
);
}
);
width = 548;
}
);
unicode = 0067;
},
{
glyphname = h;
lastChange = "2021-04-13 12:14:12 +0000";
layers = (
{
layerId = "A833981A-68C5-4528-81CD-92C717829696";
paths = (
{
closed = 1;
nodes = (
"42 0 LINE",
"172 0 LINE",
"172 700 LINE",
"42 700 LINE"
);
},
{
closed = 1;
nodes = (
"332 0 LINE",
"462 0 LINE",
"462 290 LINE",
"331 290 LINE"
);
},
{
closed = 1;
nodes = (
"300 372 OFFCURVE",
"331 364 OFFCURVE",
"331 290 CURVE",
"462 290 LINE",
"462 460 OFFCURVE",
"347 500 OFFCURVE",
"247 500 CURVE",
"237 372 LINE"
);
},
{
closed = 1;
nodes = (
"247 500 LINE",
"137 500 OFFCURVE",
"97 415 OFFCURVE",
"97 290 CURVE",
"172 290 LINE",
"172 343 OFFCURVE",
"189 372 OFFCURVE",
"237 372 CURVE"
);
}
);
width = 504;
}
);
unicode = 0068;
},
{
glyphname = i;
lastChange = "2021-04-13 11:22:22 +0000";
layers = (
{
layerId = "A833981A-68C5-4528-81CD-92C717829696";
paths = (
{
closed = 1;
nodes = (
"42 215 LINE",
"172 24 LINE",
"172 500 LINE",
"42 485 LINE"
);
},
{
closed = 0;
nodes = (
"257 0 LINE",
"257 131 LINE"
);
},
{
closed = 1;
nodes = (
"42 215 LINE",
"42 115 OFFCURVE",
"87 0 OFFCURVE",
"257 0 CURVE",
"257 131 LINE",
"183 131 OFFCURVE",
"172 162 OFFCURVE",
"172 225 CURVE"
);
},
{
closed = 1;
nodes = (
"142 535 OFFCURVE",
"172 564 OFFCURVE",
"172 600 CURVE SMOOTH",
"172 636 OFFCURVE",
"142 665 OFFCURVE",
"107 665 CURVE SMOOTH",
"71 665 OFFCURVE",
"42 636 OFFCURVE",
"42 600 CURVE SMOOTH",
"42 564 OFFCURVE",
"71 535 OFFCURVE",
"107 535 CURVE SMOOTH"
);
}
);
width = 299;
}
);
unicode = 0069;
},
{
glyphname = idotless;
lastChange = "2021-04-13 11:22:22 +0000";
layers = (
{
layerId = "A833981A-68C5-4528-81CD-92C717829696";
paths = (
{
closed = 1;
nodes = (
"42 215 LINE",
"172 24 LINE",
"172 500 LINE",
"42 485 LINE"
);
},
{
closed = 0;
nodes = (
"257 0 LINE",
"257 131 LINE"
);
},
{
closed = 1;
nodes = (
"42 215 LINE",
"42 115 OFFCURVE",
"87 0 OFFCURVE",
"257 0 CURVE",
"257 131 LINE",
"183 131 OFFCURVE",
"172 162 OFFCURVE",
"172 225 CURVE"
);
}
);
width = 299;
}
);
unicode = 0131;
},
{
glyphname = j;
lastChange = "2021-04-13 11:22:22 +0000";
layers = (
{
layerId = "A833981A-68C5-4528-81CD-92C717829696";
paths = (
{
closed = 1;
nodes = (
"127 500 LINE",
"127 -176 LINE",
"257 15 LINE",
"257 485 LINE"
);
},
{
closed = 0;
nodes = (
"42 -200 LINE",
"42 -69 LINE"
);
},
{
closed = 1;
nodes = (
"127 -38 OFFCURVE",
"116 -69 OFFCURVE",
"42 -69 CURVE",
"42 -200 LINE",
"212 -200 OFFCURVE",
"257 -85 OFFCURVE",
"257 15 CURVE",
"127 25 LINE"
);
},
{
closed = 1;
nodes = (
"227 535 OFFCURVE",
"257 564 OFFCURVE",
"257 600 CURVE SMOOTH",
"257 636 OFFCURVE",
"227 665 OFFCURVE",
"192 665 CURVE SMOOTH",
"156 665 OFFCURVE",
"127 636 OFFCURVE",
"127 600 CURVE SMOOTH",
"127 564 OFFCURVE",
"156 535 OFFCURVE",
"192 535 CURVE SMOOTH"
);
}
);
width = 299;
}
);
unicode = 006A;
},
{
glyphname = k;
lastChange = "2021-04-13 11:22:22 +0000";
layers = (
{
layerId = "A833981A-68C5-4528-81CD-92C717829696";
paths = (
{
closed = 1;
nodes = (
"42 0 LINE",
"172 0 LINE",
"172 700 LINE",
"42 700 LINE"
);
},
{
closed = 1;
nodes = (
"462 500 LINE",
"272 500 LINE",
"172 403 LINE",
"172 221 LINE"
);
},
{
closed = 1;
nodes = (
"128 291 LINE",
"318 0 LINE",
"462 0 LINE",
"257 356 LINE"
);
}
);
width = 504;
}
);
unicode = 006B;
},
{
glyphname = l;
lastChange = "2021-04-13 11:22:22 +0000";
layers = (
{
layerId = "A833981A-68C5-4528-81CD-92C717829696";
paths = (
{
closed = 1;
nodes = (
"42 215 LINE",
"172 24 LINE",
"172 700 LINE",
"42 685 LINE"
);
},
{
closed = 0;
nodes = (
"257 0 LINE",
"257 131 LINE"
);
},
{
closed = 1;
nodes = (
"42 215 LINE",
"42 115 OFFCURVE",
"87 0 OFFCURVE",
"257 0 CURVE",
"257 131 LINE",
"183 131 OFFCURVE",
"172 162 OFFCURVE",
"172 225 CURVE"
);
}
);
width = 299;
}
);
unicode = 006C;
},
{
glyphname = m;
lastChange = "2021-04-13 11:22:22 +0000";
layers = (
{
layerId = "A833981A-68C5-4528-81CD-92C717829696";
paths = (
{
closed = 1;
nodes = (
"42 0 LINE",
"172 0 LINE",
"172 472 LINE",
"161 500 LINE",
"42 500 LINE"
);
},
{
closed = 1;
nodes = (
"332 0 LINE",
"462 0 LINE",
"462 290 LINE",
"331 290 LINE"
);
},
{
closed = 1;
nodes = (
"300 372 OFFCURVE",
"331 364 OFFCURVE",
"331 290 CURVE",
"462 290 LINE",
"462 500 OFFCURVE",
"347 500 OFFCURVE",
"247 500 CURVE",
"237 372 LINE"
);
},
{
closed = 1;
nodes = (
"247 500 LINE",
"137 500 OFFCURVE",
"97 415 OFFCURVE",
"97 290 CURVE",
"172 290 LINE",
"172 343 OFFCURVE",
"189 372 OFFCURVE",
"237 372 CURVE"
);
},
{
closed = 0;
nodes = (
"462 472 LINE"
);
},
{
closed = 1;
nodes = (
"622 0 LINE",
"752 0 LINE",
"752 290 LINE",
"621 290 LINE"
);
},
{
closed = 1;
nodes = (
"590 372 OFFCURVE",
"621 364 OFFCURVE",
"621 290 CURVE",
"752 290 LINE",
"752 460 OFFCURVE",
"637 500 OFFCURVE",
"537 500 CURVE",
"527 372 LINE"
);
},
{
closed = 1;
nodes = (
"537 500 LINE",
"427 500 OFFCURVE",
"387 415 OFFCURVE",
"387 290 CURVE",
"462 290 LINE",
"462 343 OFFCURVE",
"479 372 OFFCURVE",
"527 372 CURVE"
);
}
);
width = 794;
}
);
unicode = 006D;
},
{
glyphname = n;
lastChange = "2021-04-13 12:24:38 +0000";
layers = (
{
layerId = "A833981A-68C5-4528-81CD-92C717829696";
paths = (
{
closed = 1;
nodes = (
"42 0 LINE",
"172 0 LINE",
"172 472 LINE",
"161 500 LINE",
"42 500 LINE"
);
},
{
closed = 1;
nodes = (
"332 0 LINE",
"462 0 LINE",
"462 290 LINE",
"331 290 LINE"
);
},
{
closed = 1;
nodes = (
"300 372 OFFCURVE",
"331 364 OFFCURVE",
"331 290 CURVE",
"462 290 LINE",
"462 460 OFFCURVE",
"347 500 OFFCURVE",
"247 500 CURVE",
"237 372 LINE"
);
},
{
closed = 1;
nodes = (
"247 500 LINE",
"137 500 OFFCURVE",
"97 415 OFFCURVE",
"97 290 CURVE",
"172 290 LINE",
"172 343 OFFCURVE",
"189 372 OFFCURVE",
"237 372 CURVE"
);
}
);
width = 504;
}
);
unicode = 006E;
},
{
glyphname = o;
lastChange = "2021-04-13 11:22:22 +0000";
layers = (
{
layerId = "A833981A-68C5-4528-81CD-92C717829696";
paths = (
{
closed = 1;
nodes = (
"472 210 LINE",
"472 254 LINE",
"341 254 LINE",
"341 210 LINE"
);
},
{
closed = 1;
nodes = (
"257 0 LINE",
"357 0 OFFCURVE",
"472 40 OFFCURVE",
"472 210 CURVE",
"341 210 LINE",
"341 136 OFFCURVE",
"310 128 OFFCURVE",
"247 128 CURVE"
);
},
{
closed = 1;
nodes = (
"257 0 LINE",
"247 128 LINE"
);
},
{
closed = 1;
nodes = (
"341 254 LINE",
"472 254 LINE"
);
},
{
closed = 1;
nodes = (
"341 254 LINE",
"472 254 LINE",
"472 290 LINE",
"341 290 LINE"
);
},
{
closed = 1;
nodes = (
"310 372 OFFCURVE",
"341 364 OFFCURVE",
"341 290 CURVE",
"472 290 LINE",
"472 460 OFFCURVE",
"357 500 OFFCURVE",
"257 500 CURVE",
"247 372 LINE"
);
},
{
closed = 1;
nodes = (
"257 500 LINE",
"247 372 LINE"
);
},
{
closed = 1;
nodes = (
"173 254 LINE",
"42 254 LINE",
"42 210 LINE",
"173 210 LINE"
);
},
{
closed = 1;
nodes = (
"204 128 OFFCURVE",
"173 136 OFFCURVE",
"173 210 CURVE",
"42 210 LINE",
"42 40 OFFCURVE",
"157 0 OFFCURVE",
"257 0 CURVE",
"267 128 LINE"
);
},
{
closed = 1;
nodes = (
"257 0 LINE",
"267 128 LINE"
);
},
{
closed = 1;
nodes = (
"42 254 LINE",
"173 254 LINE"
);
},
{
closed = 1;
nodes = (
"42 254 LINE",
"173 254 LINE"
);
},
{
closed = 1;
nodes = (
"42 254 LINE",
"173 254 LINE"
);
},
{
closed = 1;
nodes = (
"257 500 LINE",
"267 372 LINE"
);
},
{
closed = 1;
nodes = (
"42 290 LINE",
"42 254 LINE",
"173 254 LINE",
"173 290 LINE"
);
},
{
closed = 1;
nodes = (
"257 500 LINE",
"157 500 OFFCURVE",
"42 460 OFFCURVE",
"42 290 CURVE",
"173 290 LINE",
"173 364 OFFCURVE",
"204 372 OFFCURVE",
"267 372 CURVE"
);
}
);
width = 514;
}
);
unicode = 006F;
},
{
glyphname = odieresis;
lastChange = "2021-04-13 12:41:58 +0000";
layers = (
{
components = (
{
name = dieresiscomb;
}
);
layerId = "A833981A-68C5-4528-81CD-92C717829696";
paths = (
{
closed = 1;
nodes = (
"472 210 LINE",
"472 254 LINE",
"341 254 LINE",
"341 210 LINE"
);
},
{
closed = 1;
nodes = (
"257 0 LINE",
"357 0 OFFCURVE",
"472 40 OFFCURVE",
"472 210 CURVE",
"341 210 LINE",
"341 136 OFFCURVE",
"310 128 OFFCURVE",
"247 128 CURVE"
);
},
{
closed = 1;
nodes = (
"257 0 LINE",
"247 128 LINE"
);
},
{
closed = 1;
nodes = (
"341 254 LINE",
"472 254 LINE"
);
},
{
closed = 1;
nodes = (
"341 254 LINE",
"472 254 LINE",
"472 290 LINE",
"341 290 LINE"
);
},
{
closed = 1;
nodes = (
"310 372 OFFCURVE",
"341 364 OFFCURVE",
"341 290 CURVE",
"472 290 LINE",
"472 460 OFFCURVE",
"357 500 OFFCURVE",
"257 500 CURVE",
"247 372 LINE"
);
},
{
closed = 1;
nodes = (
"257 500 LINE",
"247 372 LINE"
);
},
{
closed = 1;
nodes = (
"173 254 LINE",
"42 254 LINE",
"42 210 LINE",
"173 210 LINE"
);
},
{
closed = 1;
nodes = (
"204 128 OFFCURVE",
"173 136 OFFCURVE",
"173 210 CURVE",
"42 210 LINE",
"42 40 OFFCURVE",
"157 0 OFFCURVE",
"257 0 CURVE",
"267 128 LINE"
);
},
{
closed = 1;
nodes = (
"257 0 LINE",
"267 128 LINE"
);
},
{
closed = 1;
nodes = (
"42 254 LINE",
"173 254 LINE"
);
},
{
closed = 1;
nodes = (
"42 254 LINE",
"173 254 LINE"
);
},
{
closed = 1;
nodes = (
"42 254 LINE",
"173 254 LINE"
);
},
{
closed = 1;
nodes = (
"257 500 LINE",
"267 372 LINE"
);
},
{
closed = 1;
nodes = (
"42 290 LINE",
"42 254 LINE",
"173 254 LINE",
"173 290 LINE"
);
},
{
closed = 1;
nodes = (
"257 500 LINE",
"157 500 OFFCURVE",
"42 460 OFFCURVE",
"42 290 CURVE",
"173 290 LINE",
"173 364 OFFCURVE",
"204 372 OFFCURVE",
"267 372 CURVE"
);
}
);
width = 514;
}
);
unicode = 00F6;
},
{
glyphname = oe;
lastChange = "2021-04-13 11:22:22 +0000";
layers = (
{
layerId = "A833981A-68C5-4528-81CD-92C717829696";
paths = (
{
closed = 1;
nodes = (
"472 210 LINE",
"472 254 LINE",
"341 254 LINE",
"341 210 LINE"
);
},
{
closed = 1;
nodes = (
"257 0 LINE",
"357 0 OFFCURVE",
"472 40 OFFCURVE",
"472 210 CURVE",
"341 210 LINE",
"341 136 OFFCURVE",
"310 128 OFFCURVE",
"247 128 CURVE"
);
},
{
closed = 1;
nodes = (
"257 0 LINE",
"247 128 LINE"
);
},
{
closed = 1;
nodes = (
"341 254 LINE",
"472 254 LINE"
);
},
{
closed = 1;
nodes = (
"341 254 LINE",
"472 254 LINE",
"472 290 LINE",
"341 290 LINE"
);
},
{
closed = 1;
nodes = (
"310 372 OFFCURVE",
"341 364 OFFCURVE",
"341 290 CURVE",
"472 290 LINE",
"472 460 OFFCURVE",
"357 500 OFFCURVE",
"257 500 CURVE",
"247 372 LINE"
);
},
{
closed = 1;
nodes = (
"257 500 LINE",
"247 372 LINE"
);
},
{
closed = 1;
nodes = (
"173 254 LINE",
"42 254 LINE",
"42 210 LINE",
"173 210 LINE"
);
},
{
closed = 1;
nodes = (
"204 128 OFFCURVE",
"173 136 OFFCURVE",
"173 210 CURVE",
"42 210 LINE",
"42 40 OFFCURVE",
"157 0 OFFCURVE",
"257 0 CURVE",
"267 128 LINE"
);
},
{
closed = 1;
nodes = (
"257 0 LINE",
"267 128 LINE"
);
},
{
closed = 1;
nodes = (
"42 254 LINE",
"173 254 LINE"
);
},
{
closed = 1;
nodes = (
"42 254 LINE",
"173 254 LINE"
);
},
{
closed = 1;
nodes = (
"42 254 LINE",
"173 254 LINE"
);
},
{
closed = 1;
nodes = (
"257 500 LINE",
"267 372 LINE"
);
},
{
closed = 1;
nodes = (
"42 290 LINE",
"42 254 LINE",
"173 254 LINE",
"173 290 LINE"
);
},
{
closed = 1;
nodes = (
"257 500 LINE",
"157 500 OFFCURVE",
"42 460 OFFCURVE",
"42 290 CURVE",
"173 290 LINE",
"173 364 OFFCURVE",
"204 372 OFFCURVE",
"267 372 CURVE"
);
},
{
closed = 1;
nodes = (
"471 210 LINE",
"471 290 LINE",
"342 290 LINE",
"342 210 LINE"
);
},
{
closed = 0;
nodes = (
"471 28 LINE"
);
},
{
closed = 0;
nodes = (
"471 28 LINE"
);
},
{
closed = 0;
nodes = (
"471 28 LINE"
);
},
{
closed = 1;
nodes = (
"546 0 LINE",
"668 0 OFFCURVE",
"708 24 OFFCURVE",
"737 85 CURVE",
"654 157 LINE",
"628 119 OFFCURVE",
"569 128 OFFCURVE",
"536 128 CURVE"
);
},
{
closed = 1;
nodes = (
"488 128 OFFCURVE",
"471 157 OFFCURVE",
"471 210 CURVE",
"342 210 LINE",
"342 85 OFFCURVE",
"436 0 OFFCURVE",
"546 0 CURVE",
"536 128 LINE"
);
},
{
closed = 1;
nodes = (
"599 372 OFFCURVE",
"630 354 OFFCURVE",
"630 300 CURVE",
"761 300 LINE",
"761 434 OFFCURVE",
"646 500 OFFCURVE",
"546 500 CURVE",
"536 372 LINE"
);
},
{
closed = 1;
nodes = (
"546 500 LINE",
"436 500 OFFCURVE",
"342 415 OFFCURVE",
"342 290 CURVE",
"471 290 LINE",
"471 343 OFFCURVE",
"488 372 OFFCURVE",
"536 372 CURVE"
);
},
{
closed = 1;
nodes = (
"457 219 LINE",
"761 220 LINE",
"761 300 LINE",
"457 300 LINE"
);
}
);
width = 803;
}
);
unicode = 0153;
},
{
glyphname = p;
lastChange = "2021-04-13 19:07:44 +0000";
layers = (
{
layerId = "A833981A-68C5-4528-81CD-92C717829696";
paths = (
{
closed = 1;
nodes = (
"42 -200 LINE",
"172 -200 LINE",
"172 472 LINE",
"161 500 LINE",
"42 500 LINE"
);
},
{
closed = 0;
nodes = (
"172 472 LINE",
"161 500 LINE"
);
},
{
closed = 0;
nodes = (
"172 472 LINE"
);
},
{
closed = 0;
nodes = (
"172 472 LINE",
"161 500 LINE"
);
},
{
closed = 1;
nodes = (
"462 290 LINE",
"331 290 LINE"
);
},
{
closed = 1;
nodes = (
"300 372 OFFCURVE",
"331 364 OFFCURVE",
"331 290 CURVE",
"462 290 LINE",
"462 460 OFFCURVE",
"347 500 OFFCURVE",
"247 500 CURVE",
"237 372 LINE"
);
},
{
closed = 1;
nodes = (
"247 500 LINE",
"137 500 OFFCURVE",
"97 415 OFFCURVE",
"97 290 CURVE",
"172 290 LINE",
"172 343 OFFCURVE",
"189 372 OFFCURVE",
"237 372 CURVE"
);
},
{
closed = 1;
nodes = (
"189 128 OFFCURVE",
"172 157 OFFCURVE",
"172 210 CURVE",
"97 210 LINE",
"97 85 OFFCURVE",
"137 0 OFFCURVE",
"247 0 CURVE",
"237 128 LINE"
);
},
{
closed = 1;
nodes = (
"462 210 LINE",
"331 210 LINE"
);
},
{
closed = 1;
nodes = (
"247 0 LINE",
"347 0 OFFCURVE",
"462 40 OFFCURVE",
"462 210 CURVE",
"331 210 LINE",
"331 136 OFFCURVE",
"300 128 OFFCURVE",
"237 128 CURVE"
);
},
{
closed = 1;
nodes = (
"189 128 OFFCURVE",
"172 157 OFFCURVE",
"172 210 CURVE",
"97 210 LINE",
"97 85 OFFCURVE",
"137 0 OFFCURVE",
"247 0 CURVE",
"237 128 LINE"
);
},
{
closed = 1;
nodes = (
"331 210 LINE",
"462 210 LINE",
"462 290 LINE",
"331 290 LINE"
);
}
);
width = 504;
}
);
unicode = 0070;
},
{
glyphname = thorn;
lastChange = "2021-04-13 19:07:28 +0000";
layers = (
{
layerId = "A833981A-68C5-4528-81CD-92C717829696";
paths = (
{
closed = 1;
nodes = (
"42 -200 LINE",
"172 -200 LINE",
"172 700 LINE",
"42 700 LINE"
);
},
{
closed = 1;
nodes = (
"462 290 LINE",
"331 290 LINE"
);
},
{
closed = 1;
nodes = (
"300 372 OFFCURVE",
"331 364 OFFCURVE",
"331 290 CURVE",
"462 290 LINE",
"462 460 OFFCURVE",
"347 500 OFFCURVE",
"247 500 CURVE",
"237 372 LINE"
);
},
{
closed = 1;
nodes = (
"247 500 LINE",
"137 500 OFFCURVE",
"97 415 OFFCURVE",
"97 290 CURVE",
"172 290 LINE",
"172 343 OFFCURVE",
"189 372 OFFCURVE",
"237 372 CURVE"
);
},
{
closed = 1;
nodes = (
"189 128 OFFCURVE",
"172 157 OFFCURVE",
"172 210 CURVE",
"97 210 LINE",
"97 85 OFFCURVE",
"137 0 OFFCURVE",
"247 0 CURVE",
"237 128 LINE"
);
},
{
closed = 1;
nodes = (
"462 210 LINE",
"331 210 LINE"
);
},
{
closed = 1;
nodes = (
"247 0 LINE",
"347 0 OFFCURVE",
"462 40 OFFCURVE",
"462 210 CURVE",
"331 210 LINE",
"331 136 OFFCURVE",
"300 128 OFFCURVE",
"237 128 CURVE"
);
},
{
closed = 1;
nodes = (
"189 128 OFFCURVE",
"172 157 OFFCURVE",
"172 210 CURVE",
"97 210 LINE",
"97 85 OFFCURVE",
"137 0 OFFCURVE",
"247 0 CURVE",
"237 128 LINE"
);
},
{
closed = 1;
nodes = (
"331 210 LINE",
"462 210 LINE",
"462 290 LINE",
"331 290 LINE"
);
}
);
width = 504;
}
);
unicode = 00FE;
},
{
glyphname = q;
lastChange = "2021-04-13 19:02:17 +0000";
layers = (
{
layerId = "A833981A-68C5-4528-81CD-92C717829696";
paths = (
{
closed = 1;
nodes = (
"343 500 LINE",
"332 472 LINE",
"332 -200 LINE",
"462 -200 LINE",
"462 500 LINE"
);
},
{
closed = 1;
nodes = (
"42 290 LINE",
"42 246 LINE",
"173 246 LINE",
"173 290 LINE"
);
},
{
closed = 1;
nodes = (
"257 500 LINE",
"157 500 OFFCURVE",
"42 460 OFFCURVE",
"42 290 CURVE",
"173 290 LINE",
"173 364 OFFCURVE",
"204 372 OFFCURVE",
"267 372 CURVE"
);
},
{
closed = 1;
nodes = (
"315 372 OFFCURVE",
"332 343 OFFCURVE",
"332 290 CURVE",
"407 290 LINE",
"407 415 OFFCURVE",
"367 500 OFFCURVE",
"257 500 CURVE",
"267 372 LINE"
);
},
{
closed = 0;
nodes = (
"332 472 LINE",
"343 500 LINE"
);
},
{
closed = 1;
nodes = (
"42 290 LINE",
"42 246 LINE",
"173 246 LINE",
"173 290 LINE"
);
},
{
closed = 1;
nodes = (
"257 500 LINE",
"157 500 OFFCURVE",
"42 460 OFFCURVE",
"42 290 CURVE",
"173 290 LINE",
"173 364 OFFCURVE",
"204 372 OFFCURVE",
"267 372 CURVE"
);
},
{
closed = 1;
nodes = (
"315 372 OFFCURVE",
"332 343 OFFCURVE",
"332 290 CURVE",
"407 290 LINE",
"407 415 OFFCURVE",
"367 500 OFFCURVE",
"257 500 CURVE",
"267 372 LINE"
);
},
{
closed = 0;
nodes = (
"332 472 LINE"
);
},
{
closed = 1;
nodes = (
"42 290 LINE",
"42 246 LINE",
"173 246 LINE",
"173 290 LINE"
);
},
{
closed = 1;
nodes = (
"257 500 LINE",
"157 500 OFFCURVE",
"42 460 OFFCURVE",
"42 290 CURVE",
"173 290 LINE",
"173 364 OFFCURVE",
"204 372 OFFCURVE",
"267 372 CURVE"
);
},
{
closed = 1;
nodes = (
"315 372 OFFCURVE",
"332 343 OFFCURVE",
"332 290 CURVE",
"407 290 LINE",
"407 415 OFFCURVE",
"367 500 OFFCURVE",
"257 500 CURVE",
"267 372 LINE"
);
},
{
closed = 0;
nodes = (
"332 472 LINE",
"343 500 LINE"
);
},
{
closed = 1;
nodes = (
"42 290 LINE",
"42 246 LINE",
"173 246 LINE",
"173 290 LINE"
);
},
{
closed = 1;
nodes = (
"257 500 LINE",
"157 500 OFFCURVE",
"42 460 OFFCURVE",
"42 290 CURVE",
"173 290 LINE",
"173 364 OFFCURVE",
"204 372 OFFCURVE",
"267 372 CURVE"
);
},
{
closed = 1;
nodes = (
"315 372 OFFCURVE",
"332 343 OFFCURVE",
"332 290 CURVE",
"407 290 LINE",
"407 415 OFFCURVE",
"367 500 OFFCURVE",
"257 500 CURVE",
"267 372 LINE"
);
},
{
closed = 1;
nodes = (
"173 246 LINE",
"42 246 LINE",
"42 210 LINE",
"173 210 LINE"
);
},
{
closed = 1;
nodes = (
"204 128 OFFCURVE",
"173 136 OFFCURVE",
"173 210 CURVE",
"42 210 LINE",
"42 40 OFFCURVE",
"157 0 OFFCURVE",
"257 0 CURVE",
"267 128 LINE"
);
},
{
closed = 1;
nodes = (
"257 0 LINE",
"367 0 OFFCURVE",
"407 85 OFFCURVE",
"407 210 CURVE",
"332 210 LINE",
"332 157 OFFCURVE",
"315 128 OFFCURVE",
"267 128 CURVE"
);
},
{
closed = 1;
nodes = (
"173 246 LINE",
"42 246 LINE",
"42 210 LINE",
"173 210 LINE"
);
},
{
closed = 1;
nodes = (
"204 128 OFFCURVE",
"173 136 OFFCURVE",
"173 210 CURVE",
"42 210 LINE",
"42 40 OFFCURVE",
"157 0 OFFCURVE",
"257 0 CURVE",
"267 128 LINE"
);
},
{
closed = 1;
nodes = (
"257 0 LINE",
"367 0 OFFCURVE",
"407 85 OFFCURVE",
"407 210 CURVE",
"332 210 LINE",
"332 157 OFFCURVE",
"315 128 OFFCURVE",
"267 128 CURVE"
);
},
{
closed = 1;
nodes = (
"173 246 LINE",
"42 246 LINE",
"42 210 LINE",
"173 210 LINE"
);
},
{
closed = 1;
nodes = (
"204 128 OFFCURVE",
"173 136 OFFCURVE",
"173 210 CURVE",
"42 210 LINE",
"42 40 OFFCURVE",
"157 0 OFFCURVE",
"257 0 CURVE",
"267 128 LINE"
);
},
{
closed = 1;
nodes = (
"257 0 LINE",
"367 0 OFFCURVE",
"407 85 OFFCURVE",
"407 210 CURVE",
"332 210 LINE",
"332 157 OFFCURVE",
"315 128 OFFCURVE",
"267 128 CURVE"
);
},
{
closed = 1;
nodes = (
"173 246 LINE",
"42 246 LINE",
"42 210 LINE",
"173 210 LINE"
);
},
{
closed = 1;
nodes = (
"204 128 OFFCURVE",
"173 136 OFFCURVE",
"173 210 CURVE",
"42 210 LINE",
"42 40 OFFCURVE",
"157 0 OFFCURVE",
"257 0 CURVE",
"267 128 LINE"
);
},
{
closed = 1;
nodes = (
"257 0 LINE",
"367 0 OFFCURVE",
"407 85 OFFCURVE",
"407 210 CURVE",
"332 210 LINE",
"332 157 OFFCURVE",
"315 128 OFFCURVE",
"267 128 CURVE"
);
}
);
width = 504;
}
);
unicode = 0071;
},
{
glyphname = r;
lastChange = "2021-04-13 19:02:37 +0000";
layers = (
{
layerId = "A833981A-68C5-4528-81CD-92C717829696";
paths = (
{
closed = 1;
nodes = (
"42 0 LINE",
"172 0 LINE",
"172 472 LINE",
"161 500 LINE",
"42 500 LINE"
);
},
{
closed = 1;
nodes = (
"332 246 LINE",
"462 246 LINE",
"462 290 LINE",
"331 290 LINE"
);
},
{
closed = 1;
nodes = (
"300 372 OFFCURVE",
"331 364 OFFCURVE",
"331 290 CURVE",
"462 290 LINE",
"462 460 OFFCURVE",
"347 500 OFFCURVE",
"247 500 CURVE",
"237 372 LINE"
);
},
{
closed = 1;
nodes = (
"247 500 LINE",
"137 500 OFFCURVE",
"97 415 OFFCURVE",
"97 290 CURVE",
"172 290 LINE",
"172 343 OFFCURVE",
"189 372 OFFCURVE",
"237 372 CURVE"
);
},
{
closed = 1;
nodes = (
"332 246 LINE",
"462 246 LINE",
"462 290 LINE",
"331 290 LINE"
);
},
{
closed = 1;
nodes = (
"300 372 OFFCURVE",
"331 364 OFFCURVE",
"331 290 CURVE",
"462 290 LINE",
"462 460 OFFCURVE",
"347 500 OFFCURVE",
"247 500 CURVE",
"237 372 LINE"
);
},
{
closed = 1;
nodes = (
"247 500 LINE",
"137 500 OFFCURVE",
"97 415 OFFCURVE",
"97 290 CURVE",
"172 290 LINE",
"172 343 OFFCURVE",
"189 372 OFFCURVE",
"237 372 CURVE"
);
},
{
closed = 1;
nodes = (
"332 246 LINE",
"462 246 LINE",
"462 290 LINE",
"331 290 LINE"
);
},
{
closed = 1;
nodes = (
"300 372 OFFCURVE",
"331 364 OFFCURVE",
"331 290 CURVE",
"462 290 LINE",
"462 460 OFFCURVE",
"347 500 OFFCURVE",
"247 500 CURVE",
"237 372 LINE"
);
},
{
closed = 1;
nodes = (
"247 500 LINE",
"137 500 OFFCURVE",
"97 415 OFFCURVE",
"97 290 CURVE",
"172 290 LINE",
"172 343 OFFCURVE",
"189 372 OFFCURVE",
"237 372 CURVE"
);
},
{
closed = 1;
nodes = (
"332 246 LINE",
"462 246 LINE",
"462 290 LINE",
"331 290 LINE"
);
},
{
closed = 1;
nodes = (
"300 372 OFFCURVE",
"331 364 OFFCURVE",
"331 290 CURVE",
"462 290 LINE",
"462 460 OFFCURVE",
"347 500 OFFCURVE",
"247 500 CURVE",
"237 372 LINE"
);
},
{
closed = 1;
nodes = (
"247 500 LINE",
"137 500 OFFCURVE",
"97 415 OFFCURVE",
"97 290 CURVE",
"172 290 LINE",
"172 343 OFFCURVE",
"189 372 OFFCURVE",
"237 372 CURVE"
);
},
{
closed = 1;
nodes = (
"462 246 LINE",
"332 246 LINE"
);
},
{
closed = 1;
nodes = (
"462 246 LINE",
"332 246 LINE"
);
},
{
closed = 1;
nodes = (
"462 246 LINE",
"332 246 LINE"
);
},
{
closed = 1;
nodes = (
"462 246 LINE",
"332 246 LINE"
);
}
);
width = 504;
}
);
unicode = 0072;
},
{
glyphname = s;
lastChange = "2021-04-13 11:22:22 +0000";
layers = (
{
components = (
{
name = yarimS;
transform = "{1, 0, 0, 1, -48, 0}";
}
);
layerId = "A833981A-68C5-4528-81CD-92C717829696";
paths = (
{
closed = 1;
nodes = (
"348 294 OFFCURVE",
"437 230 OFFCURVE",
"437 148 CURVE SMOOTH",
"437 65 OFFCURVE",
"348 0 OFFCURVE",
"241 0 CURVE SMOOTH",
"131 0 OFFCURVE",
"42 65 OFFCURVE",
"42 148 CURVE",
"155 161 LINE",
"155 134 OFFCURVE",
"194 114 OFFCURVE",
"241 114 CURVE SMOOTH",
"287 114 OFFCURVE",
"324 134 OFFCURVE",
"324 161 CURVE SMOOTH",
"324 186 OFFCURVE",
"287 205 OFFCURVE",
"241 205 CURVE",
"241 294 LINE"
);
},
{
closed = 1;
nodes = (
"134 205 OFFCURVE",
"45 270 OFFCURVE",
"45 352 CURVE SMOOTH",
"45 436 OFFCURVE",
"134 500 OFFCURVE",
"241 500 CURVE SMOOTH",
"351 500 OFFCURVE",
"440 436 OFFCURVE",
"440 352 CURVE",
"327 340 LINE",
"327 365 OFFCURVE",
"288 385 OFFCURVE",
"241 385 CURVE SMOOTH",
"195 385 OFFCURVE",
"158 365 OFFCURVE",
"158 340 CURVE SMOOTH",
"158 313 OFFCURVE",
"195 294 OFFCURVE",
"241 294 CURVE",
"241 205 LINE"
);
}
);
width = 482;
}
);
unicode = 0073;
},
{
glyphname = scedilla;
lastChange = "2021-04-13 11:22:22 +0000";
layers = (
{
components = (
{
name = cedillacomb;
transform = "{1, 0, 0, 1, -48, 0}";
}
);
layerId = "A833981A-68C5-4528-81CD-92C717829696";
paths = (
{
closed = 1;
nodes = (
"348 294 OFFCURVE",
"437 230 OFFCURVE",
"437 148 CURVE SMOOTH",
"437 65 OFFCURVE",
"348 0 OFFCURVE",
"241 0 CURVE SMOOTH",
"131 0 OFFCURVE",
"42 65 OFFCURVE",
"42 148 CURVE",
"155 161 LINE",
"155 134 OFFCURVE",
"194 114 OFFCURVE",
"241 114 CURVE SMOOTH",
"287 114 OFFCURVE",
"324 134 OFFCURVE",
"324 161 CURVE SMOOTH",
"324 186 OFFCURVE",
"287 205 OFFCURVE",
"241 205 CURVE",
"241 294 LINE"
);
},
{
closed = 1;
nodes = (
"134 205 OFFCURVE",
"45 270 OFFCURVE",
"45 352 CURVE SMOOTH",
"45 436 OFFCURVE",
"134 500 OFFCURVE",
"241 500 CURVE SMOOTH",
"351 500 OFFCURVE",
"440 436 OFFCURVE",
"440 352 CURVE",
"327 340 LINE",
"327 365 OFFCURVE",
"288 385 OFFCURVE",
"241 385 CURVE SMOOTH",
"195 385 OFFCURVE",
"158 365 OFFCURVE",
"158 340 CURVE SMOOTH",
"158 313 OFFCURVE",
"195 294 OFFCURVE",
"241 294 CURVE",
"241 205 LINE"
);
},
{
closed = 1;
nodes = (
"348 294 OFFCURVE",
"437 230 OFFCURVE",
"437 148 CURVE SMOOTH",
"437 65 OFFCURVE",
"348 0 OFFCURVE",
"241 0 CURVE SMOOTH",
"131 0 OFFCURVE",
"42 65 OFFCURVE",
"42 148 CURVE",
"155 161 LINE",
"155 134 OFFCURVE",
"194 114 OFFCURVE",
"241 114 CURVE SMOOTH",
"287 114 OFFCURVE",
"324 134 OFFCURVE",
"324 161 CURVE SMOOTH",
"324 186 OFFCURVE",
"287 205 OFFCURVE",
"241 205 CURVE",
"241 294 LINE"
);
},
{
closed = 1;
nodes = (
"134 205 OFFCURVE",
"45 270 OFFCURVE",
"45 352 CURVE SMOOTH",
"45 436 OFFCURVE",
"134 500 OFFCURVE",
"241 500 CURVE SMOOTH",
"351 500 OFFCURVE",
"440 436 OFFCURVE",
"440 352 CURVE",
"327 340 LINE",
"327 365 OFFCURVE",
"288 385 OFFCURVE",
"241 385 CURVE SMOOTH",
"195 385 OFFCURVE",
"158 365 OFFCURVE",
"158 340 CURVE SMOOTH",
"158 313 OFFCURVE",
"195 294 OFFCURVE",
"241 294 CURVE",
"241 205 LINE"
);
}
);
width = 482;
}
);
unicode = 015F;
},
{
glyphname = scommaaccent;
lastChange = "2021-04-13 13:03:28 +0000";
layers = (
{
layerId = "A833981A-68C5-4528-81CD-92C717829696";
paths = (
{
closed = 1;
nodes = (
"348 294 OFFCURVE",
"437 230 OFFCURVE",
"437 148 CURVE SMOOTH",
"437 65 OFFCURVE",
"348 0 OFFCURVE",
"241 0 CURVE SMOOTH",
"131 0 OFFCURVE",
"42 65 OFFCURVE",
"42 148 CURVE",
"155 161 LINE",
"155 134 OFFCURVE",
"194 114 OFFCURVE",
"241 114 CURVE SMOOTH",
"287 114 OFFCURVE",
"324 134 OFFCURVE",
"324 161 CURVE SMOOTH",
"324 186 OFFCURVE",
"287 205 OFFCURVE",
"241 205 CURVE",
"241 294 LINE"
);
},
{
closed = 1;
nodes = (
"134 205 OFFCURVE",
"45 270 OFFCURVE",
"45 352 CURVE SMOOTH",
"45 436 OFFCURVE",
"134 500 OFFCURVE",
"241 500 CURVE SMOOTH",
"351 500 OFFCURVE",
"440 436 OFFCURVE",
"440 352 CURVE",
"327 340 LINE",
"327 365 OFFCURVE",
"288 385 OFFCURVE",
"241 385 CURVE SMOOTH",
"195 385 OFFCURVE",
"158 365 OFFCURVE",
"158 340 CURVE SMOOTH",
"158 313 OFFCURVE",
"195 294 OFFCURVE",
"241 294 CURVE",
"241 205 LINE"
);
},
{
closed = 1;
nodes = (
"348 294 OFFCURVE",
"437 230 OFFCURVE",
"437 148 CURVE SMOOTH",
"437 65 OFFCURVE",
"348 0 OFFCURVE",
"241 0 CURVE SMOOTH",
"131 0 OFFCURVE",
"42 65 OFFCURVE",
"42 148 CURVE",
"155 161 LINE",
"155 134 OFFCURVE",
"194 114 OFFCURVE",
"241 114 CURVE SMOOTH",
"287 114 OFFCURVE",
"324 134 OFFCURVE",
"324 161 CURVE SMOOTH",
"324 186 OFFCURVE",
"287 205 OFFCURVE",
"241 205 CURVE",
"241 294 LINE"
);
},
{
closed = 1;
nodes = (
"134 205 OFFCURVE",
"45 270 OFFCURVE",
"45 352 CURVE SMOOTH",
"45 436 OFFCURVE",
"134 500 OFFCURVE",
"241 500 CURVE SMOOTH",
"351 500 OFFCURVE",
"440 436 OFFCURVE",
"440 352 CURVE",
"327 340 LINE",
"327 365 OFFCURVE",
"288 385 OFFCURVE",
"241 385 CURVE SMOOTH",
"195 385 OFFCURVE",
"158 365 OFFCURVE",
"158 340 CURVE SMOOTH",
"158 313 OFFCURVE",
"195 294 OFFCURVE",
"241 294 CURVE",
"241 205 LINE"
);
},
{
closed = 1;
nodes = (
"173 -32 OFFCURVE",
"137 -90 OFFCURVE",
"59 -90 CURVE",
"157 -158 LINE",
"269 -159 OFFCURVE",
"311 -33 OFFCURVE",
"311 11 CURVE",
"173 11 LINE"
);
}
);
width = 482;
}
);
unicode = 0219;
},
{
glyphname = germandbls;
lastChange = "2021-04-13 18:44:00 +0000";
layers = (
{
layerId = "A833981A-68C5-4528-81CD-92C717829696";
paths = (
{
closed = 1;
nodes = (
"42 0 LINE",
"172 0 LINE",
"172 700 LINE",
"87 700 LINE",
"42 700 OFFCURVE",
"42 660 OFFCURVE",
"42 631 CURVE"
);
},
{
closed = 1;
nodes = (
"297 280 LINE",
"297 410 LINE",
"233 410 LINE",
"233 280 LINE"
);
},
{
closed = 1;
nodes = (
"297 570 LINE",
"297 700 LINE",
"111 700 LINE",
"111 570 LINE"
);
},
{
closed = 1;
nodes = (
"297 280 LINE",
"518 280 OFFCURVE",
"517 700 OFFCURVE",
"297 700 CURVE",
"297 570 LINE",
"362 570 OFFCURVE",
"362 410 OFFCURVE",
"297 410 CURVE"
);
},
{
closed = 1;
nodes = (
"318 0 LINE",
"537 0 OFFCURVE",
"536 410 OFFCURVE",
"318 410 CURVE",
"297 280 LINE",
"362 280 OFFCURVE",
"362 129 OFFCURVE",
"297 129 CURVE"
);
},
{
closed = 1;
nodes = (
"318 0 LINE",
"297 129 LINE",
"233 130 LINE",
"233 0 LINE"
);
}
);
width = 524;
}
);
unicode = 00DF;
},
{
glyphname = t;
lastChange = "2021-04-13 19:02:48 +0000";
layers = (
{
layerId = "A833981A-68C5-4528-81CD-92C717829696";
paths = (
{
closed = 1;
nodes = (
"177 215 LINE",
"307 24 LINE",
"307 700 LINE",
"177 685 LINE"
);
},
{
closed = 1;
nodes = (
"42 500 LINE",
"42 370 LINE",
"442 370 LINE",
"442 500 LINE"
);
},
{
closed = 1;
nodes = (
"177 215 LINE",
"177 115 OFFCURVE",
"222 0 OFFCURVE",
"392 0 CURVE",
"392 131 LINE",
"318 131 OFFCURVE",
"307 162 OFFCURVE",
"307 225 CURVE"
);
}
);
width = 484;
}
);
unicode = 0074;
},
{
glyphname = u;
lastChange = "2021-04-13 11:22:22 +0000";
layers = (
{
layerId = "A833981A-68C5-4528-81CD-92C717829696";
paths = (
{
closed = 1;
nodes = (
"462 500 LINE",
"332 500 LINE",
"332 28 LINE",
"343 0 LINE",
"462 0 LINE"
);
},
{
closed = 1;
nodes = (
"172 500 LINE",
"42 500 LINE",
"42 210 LINE",
"173 210 LINE"
);
},
{
closed = 1;
nodes = (
"204 128 OFFCURVE",
"173 136 OFFCURVE",
"173 210 CURVE",
"42 210 LINE",
"42 40 OFFCURVE",
"157 0 OFFCURVE",
"257 0 CURVE",
"267 128 LINE"
);
},
{
closed = 1;
nodes = (
"257 0 LINE",
"367 0 OFFCURVE",
"407 85 OFFCURVE",
"407 210 CURVE",
"332 210 LINE",
"332 157 OFFCURVE",
"315 128 OFFCURVE",
"267 128 CURVE"
);
}
);
width = 504;
}
);
unicode = 0075;
},
{
glyphname = udieresis;
lastChange = "2021-04-13 12:41:49 +0000";
layers = (
{
components = (
{
name = dieresiscomb;
}
);
layerId = "A833981A-68C5-4528-81CD-92C717829696";
paths = (
{
closed = 1;
nodes = (
"462 500 LINE",
"332 500 LINE",
"332 28 LINE",
"343 0 LINE",
"462 0 LINE"
);
},
{
closed = 1;
nodes = (
"172 500 LINE",
"42 500 LINE",
"42 210 LINE",
"173 210 LINE"
);
},
{
closed = 1;
nodes = (
"204 128 OFFCURVE",
"173 136 OFFCURVE",
"173 210 CURVE",
"42 210 LINE",
"42 40 OFFCURVE",
"157 0 OFFCURVE",
"257 0 CURVE",
"267 128 LINE"
);
},
{
closed = 1;
nodes = (
"257 0 LINE",
"367 0 OFFCURVE",
"407 85 OFFCURVE",
"407 210 CURVE",
"332 210 LINE",
"332 157 OFFCURVE",
"315 128 OFFCURVE",
"267 128 CURVE"
);
}
);
width = 504;
}
);
unicode = 00FC;
},
{
glyphname = v;
lastChange = "2021-04-13 11:22:22 +0000";
layers = (
{
layerId = "A833981A-68C5-4528-81CD-92C717829696";
paths = (
{
closed = 1;
nodes = (
"182 0 LINE",
"312 0 LINE",
"161 500 LINE",
"42 500 LINE"
);
},
{
closed = 1;
nodes = (
"182 0 LINE",
"312 0 LINE",
"468 450 LINE",
"337 450 LINE"
);
},
{
closed = 1;
nodes = (
"337 450 LINE",
"468 450 LINE",
"468 500 LINE",
"337 500 LINE"
);
}
);
width = 510;
}
);
unicode = 0076;
},
{
glyphname = w;
lastChange = "2021-04-13 11:22:22 +0000";
layers = (
{
layerId = "A833981A-68C5-4528-81CD-92C717829696";
paths = (
{
closed = 1;
nodes = (
"182 0 LINE",
"312 0 LINE",
"161 500 LINE",
"42 500 LINE"
);
},
{
closed = 1;
nodes = (
"182 0 LINE",
"312 0 LINE",
"468 450 LINE",
"337 450 LINE"
);
},
{
closed = 1;
nodes = (
"337 450 LINE",
"468 450 LINE",
"468 500 LINE",
"337 500 LINE"
);
},
{
closed = 1;
nodes = (
"182 0 LINE",
"312 0 LINE",
"161 500 LINE",
"42 500 LINE"
);
},
{
closed = 0;
nodes = (
"182 0 LINE",
"312 0 LINE"
);
},
{
closed = 1;
nodes = (
"182 0 LINE",
"312 0 LINE",
"161 500 LINE",
"42 500 LINE"
);
},
{
closed = 1;
nodes = (
"182 0 LINE",
"312 0 LINE",
"468 450 LINE",
"337 450 LINE"
);
},
{
closed = 1;
nodes = (
"337 450 LINE",
"468 450 LINE",
"468 500 LINE",
"337 500 LINE"
);
},
{
closed = 1;
nodes = (
"182 0 LINE",
"312 0 LINE",
"161 500 LINE",
"42 500 LINE"
);
},
{
closed = 0;
nodes = (
"182 0 LINE",
"312 0 LINE"
);
},
{
closed = 1;
nodes = (
"489 0 LINE",
"619 0 LINE",
"468 500 LINE",
"349 500 LINE"
);
},
{
closed = 1;
nodes = (
"489 0 LINE",
"619 0 LINE",
"775 450 LINE",
"644 450 LINE"
);
},
{
closed = 1;
nodes = (
"644 450 LINE",
"775 450 LINE",
"775 500 LINE",
"644 500 LINE"
);
},
{
closed = 1;
nodes = (
"489 0 LINE",
"619 0 LINE",
"468 500 LINE",
"349 500 LINE"
);
},
{
closed = 0;
nodes = (
"489 0 LINE",
"619 0 LINE"
);
},
{
closed = 1;
nodes = (
"489 0 LINE",
"619 0 LINE",
"468 500 LINE",
"349 500 LINE"
);
},
{
closed = 1;
nodes = (
"489 0 LINE",
"619 0 LINE",
"775 450 LINE",
"644 450 LINE"
);
},
{
closed = 1;
nodes = (
"644 450 LINE",
"775 450 LINE",
"775 500 LINE",
"644 500 LINE"
);
},
{
closed = 1;
nodes = (
"489 0 LINE",
"619 0 LINE",
"468 500 LINE",
"349 500 LINE"
);
},
{
closed = 0;
nodes = (
"489 0 LINE",
"619 0 LINE"
);
}
);
width = 817;
}
);
unicode = 0077;
},
{
glyphname = x;
lastChange = "2021-04-13 11:22:22 +0000";
layers = (
{
layerId = "A833981A-68C5-4528-81CD-92C717829696";
paths = (
{
closed = 1;
nodes = (
"338 0 LINE",
"469 0 LINE",
"162 500 LINE",
"43 500 LINE"
);
},
{
closed = 1;
nodes = (
"42 0 LINE",
"172 0 LINE",
"469 450 LINE",
"338 450 LINE"
);
},
{
closed = 1;
nodes = (
"338 450 LINE",
"469 450 LINE",
"469 500 LINE",
"338 500 LINE"
);
}
);
width = 511;
}
);
unicode = 0078;
},
{
glyphname = y;
lastChange = "2021-04-13 11:22:22 +0000";
layers = (
{
layerId = "A833981A-68C5-4528-81CD-92C717829696";
paths = (
{
closed = 1;
nodes = (
"182 0 LINE",
"312 0 LINE",
"161 500 LINE",
"42 500 LINE"
);
},
{
closed = 1;
nodes = (
"182 0 LINE",
"312 0 LINE",
"468 450 LINE",
"337 450 LINE"
);
},
{
closed = 1;
nodes = (
"337 450 LINE",
"468 450 LINE",
"468 500 LINE",
"337 500 LINE"
);
},
{
closed = 1;
nodes = (
"187 -18 OFFCURVE",
"161 -87 OFFCURVE",
"82 -87 CURVE",
"82 -200 LINE",
"199 -200 OFFCURVE",
"260 -160 OFFCURVE",
"312 0 CURVE",
"182 0 LINE"
);
}
);
width = 510;
}
);
unicode = 0079;
},
{
glyphname = z;
lastChange = "2021-04-13 11:22:22 +0000";
layers = (
{
layerId = "A833981A-68C5-4528-81CD-92C717829696";
paths = (
{
closed = 1;
nodes = (
"42 120 LINE",
"218 120 LINE",
"469 385 LINE",
"288 385 LINE"
);
},
{
closed = 1;
nodes = (
"43 385 LINE",
"469 385 LINE",
"469 500 LINE",
"43 500 LINE"
);
},
{
closed = 0;
nodes = (
"469 0 LINE"
);
},
{
closed = 1;
nodes = (
"43 0 LINE",
"469 0 LINE",
"469 120 LINE",
"43 120 LINE"
);
}
);
width = 511;
}
);
unicode = 007A;
},
{
glyphname = zcaron;
lastChange = "2021-04-13 12:22:43 +0000";
layers = (
{
components = (
{
name = caroncomb;
transform = "{1, 0, 0, 1, -50, 0}";
}
);
layerId = "A833981A-68C5-4528-81CD-92C717829696";
paths = (
{
closed = 1;
nodes = (
"42 120 LINE",
"218 120 LINE",
"469 385 LINE",
"288 385 LINE"
);
},
{
closed = 1;
nodes = (
"43 385 LINE",
"469 385 LINE",
"469 500 LINE",
"43 500 LINE"
);
},
{
closed = 0;
nodes = (
"469 0 LINE"
);
},
{
closed = 1;
nodes = (
"43 0 LINE",
"469 0 LINE",
"469 120 LINE",
"43 120 LINE"
);
}
);
width = 511;
}
);
unicode = 017E;
},
{
glyphname = zero;
lastChange = "2021-04-13 11:22:31 +0000";
layers = (
{
layerId = "A833981A-68C5-4528-81CD-92C717829696";
paths = (
{
closed = 0;
nodes = (
"267 0 LINE"
);
},
{
closed = 1;
nodes = (
"267 0 LINE",
"567 0 OFFCURVE",
"566 700 OFFCURVE",
"267 700 CURVE",
"267 569 LINE",
"413 570 OFFCURVE",
"413 131 OFFCURVE",
"267 131 CURVE"
);
},
{
closed = 0;
nodes = (
"267 0 LINE"
);
},
{
closed = 1;
nodes = (
"121 131 OFFCURVE",
"121 570 OFFCURVE",
"267 569 CURVE",
"267 700 LINE",
"-32 700 OFFCURVE",
"-33 0 OFFCURVE",
"267 0 CURVE",
"267 131 LINE"
);
}
);
width = 534;
}
);
unicode = 0030;
},
{
glyphname = one;
lastChange = "2021-04-13 11:22:31 +0000";
layers = (
{
layerId = "A833981A-68C5-4528-81CD-92C717829696";
paths = (
{
closed = 1;
nodes = (
"182 0 LINE",
"312 0 LINE",
"312 700 LINE",
"182 685 LINE"
);
},
{
closed = 1;
nodes = (
"42 545 LINE",
"182 560 LINE",
"312 700 LINE",
"42 670 LINE"
);
}
);
width = 354;
}
);
unicode = 0031;
},
{
glyphname = two;
lastChange = "2021-04-13 11:22:31 +0000";
layers = (
{
layerId = "A833981A-68C5-4528-81CD-92C717829696";
paths = (
{
closed = 1;
nodes = (
"359 493 LINE",
"359 528 OFFCURVE",
"317 580 OFFCURVE",
"265 580 CURVE SMOOTH",
"212 580 OFFCURVE",
"167 528 OFFCURVE",
"167 493 CURVE",
"42 493 LINE",
"42 610 OFFCURVE",
"140 700 OFFCURVE",
"265 700 CURVE SMOOTH",
"387 700 OFFCURVE",
"488 610 OFFCURVE",
"488 493 CURVE"
);
},
{
closed = 1;
nodes = (
"42 0 LINE",
"488 0 LINE",
"488 128 LINE",
"42 128 LINE"
);
},
{
closed = 1;
nodes = (
"359 360 OFFCURVE",
"42 360 OFFCURVE",
"42 128 CURVE",
"172 128 LINE",
"172 289 OFFCURVE",
"488 289 OFFCURVE",
"488 493 CURVE",
"359 493 LINE"
);
}
);
width = 530;
}
);
unicode = 0032;
},
{
glyphname = three;
lastChange = "2021-04-13 11:22:31 +0000";
layers = (
{
layerId = "A833981A-68C5-4528-81CD-92C717829696";
paths = (
{
closed = 1;
nodes = (
"167 207 LINE",
"167 172 OFFCURVE",
"212 120 OFFCURVE",
"265 120 CURVE SMOOTH",
"317 120 OFFCURVE",
"359 172 OFFCURVE",
"359 207 CURVE",
"488 207 LINE",
"488 276 OFFCURVE",
"452 315 OFFCURVE",
"404 351 CURVE",
"254 351 LINE",
"254 316 LINE",
"312 286 OFFCURVE",
"359 258 OFFCURVE",
"359 207 CURVE",
"488 207 LINE",
"488 90 OFFCURVE",
"387 0 OFFCURVE",
"265 0 CURVE SMOOTH",
"140 0 OFFCURVE",
"42 90 OFFCURVE",
"42 207 CURVE"
);
},
{
closed = 1;
nodes = (
"42 610 OFFCURVE",
"140 700 OFFCURVE",
"265 700 CURVE SMOOTH",
"387 700 OFFCURVE",
"488 610 OFFCURVE",
"488 493 CURVE",
"359 493 LINE",
"359 442 OFFCURVE",
"312 415 OFFCURVE",
"254 385 CURVE",
"254 351 LINE",
"404 351 LINE",
"452 387 OFFCURVE",
"488 424 OFFCURVE",
"488 493 CURVE",
"359 493 LINE",
"359 528 OFFCURVE",
"317 580 OFFCURVE",
"265 580 CURVE SMOOTH",
"212 580 OFFCURVE",
"167 528 OFFCURVE",
"167 493 CURVE",
"42 493 LINE"
);
}
);
width = 530;
}
);
unicode = 0033;
},
{
glyphname = four;
lastChange = "2021-04-13 11:22:31 +0000";
layers = (
{
layerId = "A833981A-68C5-4528-81CD-92C717829696";
paths = (
{
closed = 1;
nodes = (
"280 0 LINE",
"410 0 LINE",
"410 700 LINE",
"280 700 LINE"
);
},
{
closed = 1;
nodes = (
"172 240 LINE",
"410 700 LINE",
"280 700 LINE",
"42 240 LINE"
);
},
{
closed = 1;
nodes = (
"42 240 LINE",
"42 110 LINE",
"488 110 LINE",
"488 240 LINE"
);
}
);
width = 530;
}
);
unicode = 0034;
},
{
glyphname = five;
lastChange = "2021-04-13 11:22:31 +0000";
layers = (
{
layerId = "A833981A-68C5-4528-81CD-92C717829696";
paths = (
{
closed = 1;
nodes = (
"169 207 LINE",
"169 172 OFFCURVE",
"214 120 OFFCURVE",
"267 120 CURVE SMOOTH",
"319 120 OFFCURVE",
"358 172 OFFCURVE",
"358 247 CURVE",
"487 247 LINE",
"483 71 OFFCURVE",
"389 0 OFFCURVE",
"267 0 CURVE SMOOTH",
"142 0 OFFCURVE",
"44 90 OFFCURVE",
"44 207 CURVE"
);
},
{
closed = 1;
nodes = (
"80 573 LINE",
"459 571 LINE",
"459 700 LINE",
"75 700 LINE"
);
},
{
closed = 1;
nodes = (
"75 700 LINE",
"42 328 LINE",
"169 328 LINE",
"200 700 LINE"
);
},
{
closed = 1;
nodes = (
"358 247 LINE",
"487 247 LINE",
"487 247 LINE",
"358 247 LINE"
);
},
{
closed = 1;
nodes = (
"198 328 LINE",
"198 328 OFFCURVE",
"214 352 OFFCURVE",
"267 352 CURVE SMOOTH",
"323 352 OFFCURVE",
"358 322 OFFCURVE",
"358 247 CURVE",
"487 247 LINE",
"487 364 OFFCURVE",
"411 472 OFFCURVE",
"267 472 CURVE SMOOTH",
"76 472 OFFCURVE",
"173 371 OFFCURVE",
"42 328 CURVE"
);
}
);
width = 529;
}
);
unicode = 0035;
},
{
glyphname = six;
lastChange = "2021-04-13 19:06:35 +0000";
layers = (
{
layerId = "A833981A-68C5-4528-81CD-92C717829696";
paths = (
{
closed = 1;
nodes = (
"487 130 OFFCURVE",
"418 0 OFFCURVE",
"262 0 CURVE SMOOTH",
"140 0 OFFCURVE",
"46 71 OFFCURVE",
"42 247 CURVE",
"171 247 LINE",
"171 172 OFFCURVE",
"210 120 OFFCURVE",
"262 120 CURVE SMOOTH",
"339 120 OFFCURVE",
"358 212 OFFCURVE",
"358 247 CURVE",
"487 247 LINE"
);
},
{
closed = 1;
nodes = (
"42 247 LINE",
"171 247 LINE"
);
},
{
closed = 1;
nodes = (
"338 514 LINE",
"338 549 OFFCURVE",
"339 580 OFFCURVE",
"262 580 CURVE SMOOTH",
"210 580 OFFCURVE",
"171 528 OFFCURVE",
"171 453 CURVE",
"42 453 LINE",
"46 629 OFFCURVE",
"140 700 OFFCURVE",
"262 700 CURVE SMOOTH",
"418 700 OFFCURVE",
"467 631 OFFCURVE",
"467 514 CURVE"
);
},
{
closed = 1;
nodes = (
"42 247 LINE",
"171 247 LINE",
"171 453 LINE",
"42 453 LINE"
);
},
{
closed = 1;
nodes = (
"267 352 LINE",
"323 352 OFFCURVE",
"358 322 OFFCURVE",
"358 247 CURVE",
"487 247 LINE",
"487 364 OFFCURVE",
"411 472 OFFCURVE",
"267 472 CURVE"
);
},
{
closed = 1;
nodes = (
"123 472 OFFCURVE",
"47 364 OFFCURVE",
"47 247 CURVE",
"171 247 LINE",
"171 322 OFFCURVE",
"211 352 OFFCURVE",
"267 352 CURVE",
"267 472 LINE"
);
}
);
width = 529;
}
);
unicode = 0036;
},
{
glyphname = seven;
lastChange = "2021-04-13 11:22:31 +0000";
layers = (
{
layerId = "A833981A-68C5-4528-81CD-92C717829696";
paths = (
{
closed = 1;
nodes = (
"184 0 LINE",
"314 0 LINE",
"464 700 LINE",
"333 680 LINE"
);
},
{
closed = 1;
nodes = (
"42 575 LINE",
"351 575 LINE",
"464 700 LINE",
"42 700 LINE"
);
}
);
width = 506;
}
);
unicode = 0037;
},
{
glyphname = eight;
lastChange = "2021-04-13 11:22:31 +0000";
layers = (
{
layerId = "A833981A-68C5-4528-81CD-92C717829696";
paths = (
{
closed = 1;
nodes = (
"574 0 OFFCURVE",
"573 436 OFFCURVE",
"270 436 CURVE",
"270 336 LINE",
"417 336 OFFCURVE",
"417 118 OFFCURVE",
"270 118 CURVE",
"270 0 LINE"
);
},
{
closed = 1;
nodes = (
"270 118 LINE",
"122 118 OFFCURVE",
"122 336 OFFCURVE",
"270 336 CURVE",
"270 436 LINE",
"-34 436 OFFCURVE",
"-35 0 OFFCURVE",
"270 0 CURVE"
);
},
{
closed = 1;
nodes = (
"574 336 OFFCURVE",
"573 710 OFFCURVE",
"270 710 CURVE",
"270 608 LINE",
"379 608 OFFCURVE",
"417 436 OFFCURVE",
"270 436 CURVE",
"270 336 LINE"
);
},
{
closed = 1;
nodes = (
"270 436 LINE",
"122 436 OFFCURVE",
"160 608 OFFCURVE",
"270 608 CURVE",
"270 710 LINE",
"-34 710 OFFCURVE",
"-35 336 OFFCURVE",
"270 336 CURVE"
);
}
);
width = 540;
}
);
unicode = 0038;
},
{
glyphname = nine;
lastChange = "2021-04-13 19:04:55 +0000";
layers = (
{
layerId = "A833981A-68C5-4528-81CD-92C717829696";
paths = (
{
closed = 1;
nodes = (
"262 348 LINE",
"206 348 OFFCURVE",
"171 378 OFFCURVE",
"171 453 CURVE",
"42 453 LINE",
"42 336 OFFCURVE",
"118 228 OFFCURVE",
"262 228 CURVE"
);
},
{
closed = 1;
nodes = (
"42 570 OFFCURVE",
"111 700 OFFCURVE",
"267 700 CURVE SMOOTH",
"389 700 OFFCURVE",
"483 629 OFFCURVE",
"487 453 CURVE",
"358 453 LINE",
"358 528 OFFCURVE",
"319 580 OFFCURVE",
"267 580 CURVE SMOOTH",
"190 580 OFFCURVE",
"171 488 OFFCURVE",
"171 453 CURVE",
"42 453 LINE"
);
},
{
closed = 1;
nodes = (
"487 453 LINE",
"358 453 LINE"
);
},
{
closed = 1;
nodes = (
"191 186 LINE",
"191 151 OFFCURVE",
"190 120 OFFCURVE",
"267 120 CURVE SMOOTH",
"319 120 OFFCURVE",
"358 172 OFFCURVE",
"358 247 CURVE",
"487 247 LINE",
"483 71 OFFCURVE",
"389 0 OFFCURVE",
"267 0 CURVE SMOOTH",
"111 0 OFFCURVE",
"62 69 OFFCURVE",
"62 186 CURVE"
);
},
{
closed = 1;
nodes = (
"487 453 LINE",
"358 453 LINE",
"358 247 LINE",
"487 247 LINE"
);
},
{
closed = 1;
nodes = (
"406 228 OFFCURVE",
"482 336 OFFCURVE",
"482 453 CURVE",
"358 453 LINE",
"358 378 OFFCURVE",
"318 348 OFFCURVE",
"262 348 CURVE",
"262 228 LINE"
);
}
);
width = 529;
}
);
unicode = 0039;
},
{
glyphname = period;
lastChange = "2021-04-13 11:19:26 +0000";
layers = (
{
layerId = "A833981A-68C5-4528-81CD-92C717829696";
paths = (
{
closed = 1;
nodes = (
"141 0 OFFCURVE",
"170 29 OFFCURVE",
"170 65 CURVE SMOOTH",
"170 101 OFFCURVE",
"141 130 OFFCURVE",
"105 130 CURVE SMOOTH",
"69 130 OFFCURVE",
"40 101 OFFCURVE",
"40 65 CURVE SMOOTH",
"40 29 OFFCURVE",
"69 0 OFFCURVE",
"105 0 CURVE SMOOTH"
);
}
);
width = 210;
}
);
unicode = 002E;
},
{
glyphname = comma;
lastChange = "2021-04-13 11:19:26 +0000";
layers = (
{
layerId = "A833981A-68C5-4528-81CD-92C717829696";
paths = (
{
closed = 1;
nodes = (
"241 0 OFFCURVE",
"270 29 OFFCURVE",
"270 65 CURVE SMOOTH",
"270 101 OFFCURVE",
"241 130 OFFCURVE",
"205 130 CURVE SMOOTH",
"169 130 OFFCURVE",
"140 101 OFFCURVE",
"140 65 CURVE SMOOTH",
"140 29 OFFCURVE",
"169 0 OFFCURVE",
"205 0 CURVE SMOOTH"
);
},
{
closed = 1;
nodes = (
"145 47 OFFCURVE",
"119 -87 OFFCURVE",
"40 -87 CURVE",
"67 -200 LINE",
"184 -200 OFFCURVE",
"218 -95 OFFCURVE",
"270 65 CURVE",
"227 65 OFFCURVE",
"183 65 OFFCURVE",
"140 65 CURVE"
);
}
);
width = 310;
}
);
unicode = 002C;
},
{
glyphname = hyphen;
lastChange = "2021-04-13 11:19:26 +0000";
layers = (
{
layerId = "A833981A-68C5-4528-81CD-92C717829696";
paths = (
{
closed = 1;
nodes = (
"80 365 LINE",
"80 235 LINE",
"480 235 LINE",
"480 365 LINE"
);
}
);
width = 600;
}
);
unicode = 002D;
},
{
glyphname = dieresiscomb;
lastChange = "2021-04-13 12:41:28 +0000";
layers = (
{
layerId = "A833981A-68C5-4528-81CD-92C717829696";
paths = (
{
closed = 1;
nodes = (
"142 535 OFFCURVE",
"172 564 OFFCURVE",
"172 601 CURVE SMOOTH",
"172 637 OFFCURVE",
"142 665 OFFCURVE",
"107 665 CURVE SMOOTH",
"71 665 OFFCURVE",
"42 637 OFFCURVE",
"42 601 CURVE SMOOTH",
"42 564 OFFCURVE",
"71 535 OFFCURVE",
"107 535 CURVE SMOOTH"
);
},
{
closed = 1;
nodes = (
"432 535 OFFCURVE",
"462 564 OFFCURVE",
"462 601 CURVE SMOOTH",
"462 637 OFFCURVE",
"432 665 OFFCURVE",
"397 665 CURVE SMOOTH",
"361 665 OFFCURVE",
"332 637 OFFCURVE",
"332 601 CURVE SMOOTH",
"332 564 OFFCURVE",
"361 535 OFFCURVE",
"397 535 CURVE SMOOTH"
);
}
);
width = 504;
}
);
unicode = 0308;
},
{
glyphname = dotaccentcomb;
lastChange = "2021-04-13 11:19:26 +0000";
layers = (
{
layerId = "A833981A-68C5-4528-81CD-92C717829696";
paths = (
{
closed = 1;
nodes = (
"335 535 OFFCURVE",
"365 564 OFFCURVE",
"365 601 CURVE SMOOTH",
"365 637 OFFCURVE",
"335 665 OFFCURVE",
"300 665 CURVE SMOOTH",
"264 665 OFFCURVE",
"235 637 OFFCURVE",
"235 601 CURVE SMOOTH",
"235 564 OFFCURVE",
"264 535 OFFCURVE",
"300 535 CURVE SMOOTH"
);
}
);
width = 600;
}
);
unicode = 0307;
},
{
glyphname = gravecomb;
lastChange = "2021-04-13 12:36:56 +0000";
layers = (
{
layerId = "A833981A-68C5-4528-81CD-92C717829696";
paths = (
{
closed = 1;
nodes = (
"330 534 LINE",
"212 633 LINE",
"108 633 LINE",
"175 534 LINE"
);
}
);
width = 550;
}
);
unicode = 0300;
},
{
glyphname = acutecomb;
lastChange = "2021-04-13 12:24:00 +0000";
layers = (
{
layerId = "A833981A-68C5-4528-81CD-92C717829696";
paths = (
{
closed = 1;
nodes = (
"340 534 LINE",
"438 635 LINE",
"308 635 LINE",
"230 534 LINE"
);
}
);
width = 556;
}
);
unicode = 0301;
},
{
glyphname = hungarumlautcomb;
lastChange = "2021-04-13 12:40:42 +0000";
layers = (
{
layerId = "A833981A-68C5-4528-81CD-92C717829696";
paths = (
{
closed = 1;
nodes = (
"282 643 LINE",
"198 643 LINE",
"155 516 LINE",
"239 516 LINE"
);
},
{
closed = 1;
nodes = (
"405 643 LINE",
"320 643 LINE",
"277 516 LINE",
"362 516 LINE"
);
}
);
width = 550;
}
);
unicode = 030B;
},
{
glyphname = circumflexcomb;
lastChange = "2021-04-13 12:30:15 +0000";
layers = (
{
layerId = "A833981A-68C5-4528-81CD-92C717829696";
paths = (
{
closed = 1;
nodes = (
"287 534 LINE",
"410 534 LINE",
"312 635 LINE",
"210 635 LINE"
);
},
{
closed = 1;
nodes = (
"90 536 LINE",
"194 536 LINE",
"312 635 LINE",
"157 635 LINE"
);
}
);
width = 500;
}
);
unicode = 0302;
},
{
glyphname = caroncomb;
lastChange = "2021-04-13 11:19:26 +0000";
layers = (
{
layerId = "A833981A-68C5-4528-81CD-92C717829696";
paths = (
{
closed = 1;
nodes = (
"380 534 LINE",
"478 635 LINE",
"355 635 LINE",
"278 534 LINE"
);
},
{
closed = 1;
nodes = (
"380 534 LINE",
"262 633 LINE",
"158 633 LINE",
"225 534 LINE"
);
}
);
width = 600;
}
);
unicode = 030C;
},
{
glyphname = brevecomb;
lastChange = "2021-04-13 11:33:24 +0000";
layers = (
{
layerId = "A833981A-68C5-4528-81CD-92C717829696";
paths = (
{
closed = 1;
nodes = (
"450 675 LINE",
"150 675 LINE",
"150 579 LINE",
"450 579 LINE"
);
}
);
width = 600;
}
);
unicode = 0306;
},
{
glyphname = ringcomb;
lastChange = "2021-04-13 11:19:26 +0000";
layers = (
{
layerId = "A833981A-68C5-4528-81CD-92C717829696";
paths = (
{
closed = 1;
nodes = (
"346 555 OFFCURVE",
"370 516 OFFCURVE",
"420 516 CURVE SMOOTH",
"468 516 OFFCURVE",
"510 553 OFFCURVE",
"510 600 CURVE SMOOTH",
"510 646 OFFCURVE",
"468 682 OFFCURVE",
"420 682 CURVE SMOOTH",
"370 682 OFFCURVE",
"346 648 OFFCURVE",
"346 602 CURVE SMOOTH"
);
},
{
closed = 1;
nodes = (
"384 627 OFFCURVE",
"403 648 OFFCURVE",
"425 648 CURVE SMOOTH",
"448 648 OFFCURVE",
"466 627 OFFCURVE",
"466 601 CURVE SMOOTH",
"466 576 OFFCURVE",
"448 555 OFFCURVE",
"425 555 CURVE SMOOTH",
"403 555 OFFCURVE",
"384 576 OFFCURVE",
"384 601 CURVE SMOOTH"
);
}
);
width = 600;
}
);
unicode = 030A;
},
{
glyphname = tildecomb;
lastChange = "2021-04-13 12:33:17 +0000";
layers = (
{
layerId = "A833981A-68C5-4528-81CD-92C717829696";
paths = (
{
closed = 1;
nodes = (
"330 611 LINE",
"330 700 OFFCURVE",
"509 500 OFFCURVE",
"509 700 CURVE",
"399 700 LINE",
"399 617 OFFCURVE",
"220 800 OFFCURVE",
"220 611 CURVE"
);
}
);
width = 552;
}
);
unicode = 0303;
},
{
glyphname = macroncomb;
lastChange = "2021-04-13 12:33:48 +0000";
layers = (
{
layerId = "A833981A-68C5-4528-81CD-92C717829696";
paths = (
{
closed = 1;
nodes = (
"192 596 LINE",
"474 596 LINE",
"474 674 LINE",
"192 674 LINE"
);
}
);
width = 558;
}
);
unicode = 0304;
},
{
glyphname = commaturnedabovecomb;
lastChange = "2021-04-13 11:19:26 +0000";
layers = (
{
layerId = "A833981A-68C5-4528-81CD-92C717829696";
paths = (
{
closed = 1;
nodes = (
"135 459 LINE",
"252 459 LINE",
"252 577 LINE",
"135 577 LINE"
);
},
{
closed = 1;
nodes = (
"157 700 OFFCURVE",
"136 649 OFFCURVE",
"135 577 CURVE",
"189 577 LINE",
"189 649 OFFCURVE",
"200 668 OFFCURVE",
"215 668 CURVE",
"215 700 LINE"
);
}
);
width = 600;
}
);
unicode = 0312;
},
{
glyphname = commaaccentcomb;
lastChange = "2021-04-13 12:36:20 +0000";
layers = (
{
layerId = "A833981A-68C5-4528-81CD-92C717829696";
paths = (
{
closed = 1;
nodes = (
"191 -200 LINE",
"321 -200 LINE",
"401 -39 LINE",
"271 -39 LINE"
);
}
);
width = 562;
}
);
unicode = 0326;
},
{
glyphname = cedillacomb;
lastChange = "2021-04-13 11:19:26 +0000";
layers = (
{
layerId = "A833981A-68C5-4528-81CD-92C717829696";
paths = (
{
closed = 1;
nodes = (
"218 -32 OFFCURVE",
"182 -90 OFFCURVE",
"104 -90 CURVE",
"202 -158 LINE",
"314 -159 OFFCURVE",
"356 -33 OFFCURVE",
"356 11 CURVE",
"218 11 LINE"
);
}
);
width = 600;
}
);
unicode = 0327;
},
{
glyphname = ogonekcomb;
lastChange = "2021-04-13 12:27:15 +0000";
layers = (
{
layerId = "A833981A-68C5-4528-81CD-92C717829696";
paths = (
{
closed = 1;
nodes = (
"295 0 OFFCURVE",
"251 0 OFFCURVE",
"208 0 CURVE",
"260 -160 OFFCURVE",
"294 -173 OFFCURVE",
"411 -211 CURVE",
"438 -98 LINE",
"359 -98 OFFCURVE",
"333 -18 OFFCURVE",
"338 0 CURVE"
);
}
);
width = 562;
}
);
unicode = 0328;
},
{
glyphname = strokeshortcomb;
lastChange = "2021-04-13 11:19:27 +0000";
layers = (
{
layerId = "A833981A-68C5-4528-81CD-92C717829696";
paths = (
{
closed = 1;
nodes = (
"82 219 LINE",
"401 219 LINE",
"401 295 LINE",
"82 295 LINE"
);
}
);
width = 600;
}
);
unicode = 0335;
},
{
glyphname = strokelongcomb;
lastChange = "2021-04-13 11:19:27 +0000";
layers = (
{
layerId = "A833981A-68C5-4528-81CD-92C717829696";
paths = (
{
closed = 1;
nodes = (
"74 215 LINE",
"449 215 LINE",
"449 294 LINE",
"74 294 LINE"
);
}
);
width = 600;
}
);
unicode = 0336;
},
{
glyphname = slashshortcomb;
lastChange = "2021-04-13 12:18:40 +0000";
layers = (
{
layerId = "A833981A-68C5-4528-81CD-92C717829696";
paths = (
{
closed = 1;
nodes = (
"42 246 LINE",
"172 246 LINE",
"469 466 LINE",
"338 466 LINE"
);
},
{
closed = 1;
nodes = (
"338 466 LINE",
"469 466 LINE",
"469 516 LINE",
"338 516 LINE"
);
}
);
width = 511;
}
);
unicode = 0337;
},
{
glyphname = slashlongcomb;
lastChange = "2021-04-13 12:18:36 +0000";
layers = (
{
layerId = "A833981A-68C5-4528-81CD-92C717829696";
paths = (
{
closed = 1;
nodes = (
"42 0 LINE",
"172 0 LINE",
"469 666 LINE",
"338 666 LINE"
);
},
{
closed = 1;
nodes = (
"338 666 LINE",
"469 666 LINE",
"469 716 LINE",
"338 716 LINE"
);
}
